{"glyphs":{"0":{"ha":739,"x_min":40,"x_max":699,"o":"m 404 -28 q 312 -29 360 -36 q 224 -1 264 -22 q 155 51 186 18 q 101 119 124 83 q 69 190 82 153 q 50 265 57 228 q 41 373 40 318 q 49 481 42 428 q 66 581 56 531 q 92 679 76 631 q 150 816 114 750 q 239 932 186 882 q 297 978 267 957 q 361 1013 326 999 q 406 1026 383 1022 q 453 1026 429 1031 q 481 1020 468 1024 q 507 1008 494 1017 q 533 974 526 997 q 535 964 535 971 q 538 954 536 957 q 553 940 540 951 q 569 924 567 928 q 627 837 601 883 q 668 740 653 790 q 694 592 690 668 q 692 442 699 517 q 676 326 688 383 q 644 213 664 268 q 606 130 629 169 q 551 57 583 90 q 484 3 522 26 q 404 -28 446 -19 m 356 96 q 401 96 378 92 q 444 111 425 100 q 467 127 451 114 q 486 146 482 140 q 525 197 508 169 q 556 253 542 224 q 592 365 579 306 q 608 482 606 424 q 608 601 613 542 q 586 718 603 661 q 560 781 575 750 q 525 838 546 811 q 511 854 522 842 q 496 869 500 867 q 476 884 486 876 q 461 903 467 892 q 443 895 457 901 q 425 886 429 889 q 360 828 389 863 q 308 757 331 794 q 249 616 269 690 q 217 467 228 542 q 211 338 208 403 q 238 213 214 272 q 250 184 243 197 q 265 157 257 171 q 304 117 281 133 q 356 96 328 101 z "},"1":{"ha":482,"x_min":-22,"x_max":422,"o":"m 361 0 q 334 -10 349 -7 q 306 -7 319 -12 q 278 12 290 0 q 257 38 267 24 q 249 53 251 44 q 244 69 247 61 q 241 126 240 86 q 246 209 242 165 q 254 292 250 253 q 261 350 258 332 q 268 410 263 368 q 280 508 274 453 q 294 625 286 564 q 307 742 301 686 q 317 840 313 797 q 322 900 321 882 q 285 879 311 896 q 231 843 260 863 q 176 806 201 824 q 140 783 150 789 q 115 769 128 776 q 89 757 103 763 q 56 748 74 750 q 22 743 39 746 q -8 751 3 740 q -20 777 -18 763 q -15 806 -22 792 q 13 822 -7 819 q 49 828 31 825 q 82 842 67 832 q 138 878 110 860 q 193 915 165 897 q 219 933 201 921 q 258 956 238 944 q 297 977 278 968 q 326 986 315 986 q 340 986 329 986 q 354 985 351 986 q 374 978 365 983 q 390 965 383 972 q 406 942 400 956 q 414 915 411 929 q 418 873 418 894 q 419 831 418 851 q 420 776 419 814 q 421 688 421 738 q 422 582 421 638 q 422 476 422 526 q 422 388 422 426 q 422 333 422 349 q 420 277 421 317 q 417 193 419 238 q 412 109 415 149 q 403 53 408 69 q 384 24 399 43 q 361 0 369 6 z "},"2":{"ha":754,"x_min":29,"x_max":743,"o":"m 478 -18 q 390 -19 433 -21 q 304 -15 347 -18 q 267 -12 292 -14 q 215 -6 242 -10 q 165 4 189 -1 q 132 18 142 10 q 119 35 128 21 q 107 54 110 49 q 101 84 104 63 q 100 115 97 106 q 107 138 103 126 q 119 160 111 150 q 138 180 124 165 q 169 211 153 194 q 201 243 186 228 q 219 263 215 258 q 294 341 258 301 q 364 424 331 381 q 417 497 392 460 q 458 575 442 533 q 488 663 475 618 q 500 753 500 707 q 498 810 500 781 q 481 864 496 840 q 458 890 471 878 q 428 906 444 903 q 385 907 407 910 q 343 897 363 904 q 281 869 317 888 q 213 826 246 850 q 154 774 179 801 q 125 718 129 746 q 122 685 122 701 q 125 651 121 668 q 150 592 132 618 q 157 585 153 588 q 164 581 161 583 q 178 556 176 569 q 174 530 181 542 q 156 511 168 518 q 128 507 144 504 q 115 512 121 508 q 103 519 108 515 q 78 543 89 529 q 61 572 68 557 q 35 658 42 613 q 40 749 29 704 q 86 835 53 796 q 160 903 119 874 q 251 963 204 935 q 351 1003 299 990 q 418 1012 383 1011 q 485 1001 453 1013 q 588 925 549 979 q 633 833 618 885 q 651 731 649 782 q 641 603 654 667 q 603 481 628 539 q 594 463 600 476 q 581 435 589 450 q 567 406 574 419 q 558 389 561 393 q 438 225 506 301 q 297 75 369 149 q 438 75 368 74 q 576 89 507 76 q 598 94 582 90 q 631 101 614 97 q 665 108 649 104 q 686 111 681 111 q 719 104 704 114 q 738 83 733 96 q 740 56 743 69 q 727 33 738 43 q 701 18 717 22 q 590 -6 646 3 q 478 -18 535 -15 z "},"3":{"ha":696,"x_min":26,"x_max":656,"o":"m 344 0 q 211 17 278 -6 q 92 79 144 39 q 62 104 76 90 q 39 135 47 118 q 31 186 26 161 q 51 228 35 211 q 92 251 68 244 q 143 246 117 257 q 154 239 146 244 q 172 228 163 233 q 188 217 181 222 q 199 210 196 211 q 210 203 201 207 q 230 197 219 200 q 249 190 240 193 q 261 186 258 188 q 365 186 313 171 q 488 239 431 203 q 519 274 507 253 q 535 319 532 296 q 524 383 540 351 q 488 439 508 414 q 453 463 474 454 q 413 475 433 472 q 351 478 382 478 q 289 478 321 478 q 281 476 286 478 q 275 474 276 475 q 242 467 260 469 q 210 469 225 465 q 159 503 176 478 q 141 556 142 528 q 157 610 140 585 q 207 646 174 636 q 247 652 226 651 q 288 656 268 653 q 367 676 328 663 q 443 708 407 689 q 493 761 474 726 q 510 831 513 796 q 489 878 507 857 q 438 906 469 900 q 378 913 407 913 q 285 900 332 913 q 203 858 239 888 q 187 845 196 853 q 170 828 178 838 q 158 810 163 819 q 157 792 154 800 q 150 756 163 769 q 108 741 133 735 q 78 774 83 747 q 85 834 72 804 q 121 890 97 864 q 175 935 144 915 q 235 968 206 956 q 317 989 275 983 q 403 994 360 994 q 496 979 450 994 q 576 926 542 964 q 622 840 610 889 q 629 799 628 821 q 629 758 631 778 q 620 716 626 736 q 606 676 614 696 q 551 601 588 633 q 475 546 515 569 q 547 503 514 535 q 601 441 576 475 q 639 368 625 407 q 653 291 651 332 q 644 213 656 250 q 610 139 633 174 q 554 81 586 104 q 453 26 507 49 q 344 0 400 4 z "},"4":{"ha":708,"x_min":31,"x_max":707,"o":"m 556 67 q 524 15 549 32 q 472 -1 500 -1 q 421 18 444 0 q 393 71 397 36 q 382 214 382 142 q 386 357 382 286 q 267 358 326 357 q 147 364 207 360 q 107 368 128 367 q 68 379 86 369 q 49 394 57 385 q 38 414 42 403 q 33 449 31 431 q 38 485 35 467 q 58 632 47 560 q 76 778 68 704 q 80 824 79 801 q 82 868 81 846 q 92 901 82 885 q 126 922 103 922 q 161 903 149 922 q 167 887 164 899 q 171 869 171 875 q 165 788 172 847 q 149 662 158 729 q 131 535 140 594 q 121 454 122 476 q 256 444 189 447 q 392 443 324 442 q 396 492 393 458 q 402 567 399 525 q 410 657 406 610 q 419 747 414 704 q 428 822 424 789 q 436 871 432 856 q 444 902 440 886 q 460 931 449 918 q 499 950 475 950 q 539 931 524 950 q 549 909 546 921 q 554 886 553 897 q 558 853 557 869 q 557 819 558 836 q 548 632 554 725 q 539 444 542 539 q 566 444 547 444 q 606 444 585 444 q 647 442 628 443 q 674 439 667 440 q 699 421 692 435 q 705 392 707 407 q 692 367 703 378 q 661 357 681 356 q 599 360 629 360 q 538 360 569 361 q 542 236 538 297 q 553 113 546 175 q 557 90 556 101 q 556 67 558 78 z "},"5":{"ha":708,"x_min":47,"x_max":679,"o":"m 475 11 q 342 -26 411 -15 q 206 -33 274 -36 q 188 -32 201 -33 q 161 -29 175 -31 q 134 -26 147 -28 q 117 -24 121 -25 q 71 4 88 -17 q 51 50 54 25 q 58 100 47 75 q 97 139 69 125 q 130 147 113 146 q 164 144 147 147 q 268 138 215 138 q 372 154 321 139 q 420 170 396 161 q 464 196 444 179 q 493 228 481 210 q 514 265 506 246 q 522 353 531 306 q 486 438 513 401 q 421 486 463 469 q 339 506 379 503 q 251 499 294 508 q 168 476 208 490 q 129 465 149 469 q 90 468 110 461 q 67 489 76 475 q 54 518 57 503 q 52 555 53 529 q 52 613 51 581 q 53 683 53 646 q 55 752 54 719 q 56 810 56 785 q 57 849 57 836 q 58 863 57 853 q 59 886 58 874 q 60 910 60 899 q 61 925 61 921 q 62 930 61 928 q 61 935 63 932 q 67 967 56 953 q 97 983 78 981 q 97 985 100 985 q 96 985 93 985 q 122 982 108 983 q 147 981 135 981 q 292 982 221 981 q 436 988 364 983 q 468 990 444 988 q 518 994 492 992 q 568 997 544 996 q 600 999 592 999 q 626 985 617 997 q 635 960 635 974 q 628 933 636 946 q 603 919 619 921 q 562 915 592 918 q 497 910 532 913 q 432 906 463 908 q 392 904 401 904 q 343 903 379 904 q 266 901 307 901 q 190 900 225 900 q 142 900 154 900 q 139 834 140 883 q 137 729 138 785 q 135 624 136 674 q 135 558 135 575 q 201 586 168 572 q 269 607 233 600 q 359 615 314 615 q 447 601 404 614 q 481 590 464 596 q 515 576 499 585 q 629 465 586 535 q 673 334 667 403 q 658 203 679 265 q 590 89 638 140 q 475 11 543 38 z "},"6":{"ha":753,"x_min":36,"x_max":725,"o":"m 414 -42 q 344 -42 379 -47 q 276 -26 308 -37 q 219 2 246 -15 q 169 40 193 19 q 76 172 108 94 q 43 313 47 236 q 47 472 36 392 q 81 629 57 553 q 140 769 103 701 q 228 894 176 838 q 295 956 258 928 q 374 1000 332 983 q 470 1021 418 1018 q 565 1001 522 1024 q 606 977 586 990 q 640 946 625 964 q 650 921 649 935 q 647 896 651 907 q 631 877 642 885 q 606 869 619 869 q 578 878 590 871 q 550 888 565 886 q 528 887 544 889 q 507 882 513 885 q 463 867 485 875 q 422 846 442 860 q 361 790 388 822 q 314 722 335 758 q 249 575 272 653 q 218 418 226 497 q 214 324 213 372 q 226 232 215 276 q 251 171 235 200 q 293 121 268 142 q 343 91 315 101 q 400 81 371 81 q 450 90 425 79 q 496 115 475 100 q 463 139 478 125 q 436 171 447 153 q 408 258 413 211 q 410 350 403 306 q 433 419 415 386 q 479 474 451 451 q 552 503 513 500 q 626 491 592 506 q 687 445 661 476 q 719 372 713 414 q 719 297 725 335 q 702 229 715 263 q 674 164 689 196 q 660 140 668 151 q 646 117 653 128 q 582 44 618 78 q 503 -12 546 10 q 414 -42 461 -35 m 535 199 q 568 182 551 188 q 599 223 585 201 q 624 268 614 244 q 635 308 631 288 q 638 347 640 328 q 619 392 635 372 q 579 417 603 411 q 531 402 551 424 q 501 353 510 381 q 496 313 497 336 q 499 268 494 290 q 511 227 503 246 q 535 199 519 208 z "},"7":{"ha":625,"x_min":-26,"x_max":608,"o":"m 346 64 q 307 12 339 32 q 243 -4 275 -8 q 208 8 225 -3 q 181 33 192 18 q 164 67 169 49 q 163 101 158 85 q 175 144 164 114 q 199 208 186 174 q 224 272 211 242 q 240 313 236 301 q 369 583 299 451 q 394 628 375 596 q 435 696 414 660 q 476 765 457 732 q 499 811 494 799 q 503 825 500 815 q 506 839 507 835 q 493 859 503 849 q 471 878 483 869 q 446 892 458 886 q 424 901 433 899 q 367 911 396 910 q 311 910 339 913 q 169 887 239 903 q 26 867 99 871 q 15 867 21 867 q 4 868 10 867 q -16 880 -8 871 q -25 900 -24 889 q -22 922 -26 911 q -6 940 -17 933 q 14 947 0 944 q 43 952 28 950 q 73 956 58 954 q 94 958 88 957 q 209 980 153 969 q 324 994 265 990 q 397 993 360 997 q 469 976 435 989 q 528 946 500 965 q 576 901 556 926 q 588 885 583 893 q 597 867 592 876 q 608 819 608 844 q 601 771 607 794 q 584 719 599 756 q 552 643 569 683 q 518 567 535 603 q 496 518 501 532 q 410 296 446 410 q 346 64 374 182 z "},"8":{"ha":678,"x_min":42,"x_max":636,"o":"m 335 -22 q 261 -17 299 -25 q 190 8 224 -8 q 131 52 158 25 q 85 110 104 79 q 52 186 63 144 q 46 268 42 228 q 72 362 50 317 q 121 447 93 407 q 143 477 132 463 q 168 503 154 492 q 117 556 140 526 q 78 619 93 586 q 59 688 63 651 q 63 758 56 724 q 72 788 65 774 q 85 817 78 801 q 115 865 97 842 q 157 904 133 888 q 204 938 181 922 q 254 961 228 953 q 332 974 292 972 q 411 968 372 975 q 485 945 449 961 q 550 904 522 929 q 601 824 586 869 q 613 756 613 792 q 606 688 613 721 q 569 578 594 631 q 507 482 543 526 q 552 440 531 463 q 590 393 574 418 q 622 332 610 365 q 635 264 633 299 q 626 194 636 229 q 597 129 615 160 q 536 61 574 92 q 442 4 494 26 q 335 -22 389 -18 m 279 653 q 309 630 286 646 q 358 595 332 614 q 406 560 383 576 q 436 538 429 543 q 484 612 464 571 q 513 697 504 653 q 517 744 515 721 q 511 789 518 767 q 485 831 504 814 q 440 858 465 849 q 385 872 414 868 q 331 874 356 875 q 290 863 310 871 q 257 839 269 854 q 249 829 254 836 q 238 814 243 822 q 227 799 232 806 q 221 788 222 792 q 217 775 219 785 q 214 763 214 765 q 219 728 213 744 q 238 697 226 713 q 257 674 246 685 q 279 653 268 664 m 156 169 q 213 115 178 136 q 289 92 249 94 q 338 99 311 90 q 390 123 365 108 q 436 157 415 138 q 467 196 457 176 q 476 224 474 208 q 474 253 478 239 q 461 276 469 265 q 444 296 453 286 q 402 332 425 315 q 356 365 379 349 q 296 407 326 386 q 236 449 265 428 q 206 422 219 438 q 182 389 193 406 q 152 334 165 363 q 132 275 139 306 q 133 220 126 247 q 156 169 140 193 z "},"9":{"ha":724,"x_min":32,"x_max":686,"o":"m 526 108 q 375 1 461 39 q 193 -37 289 -37 q 132 -34 163 -37 q 75 -17 101 -31 q 57 -1 64 -10 q 43 15 50 7 q 32 42 32 28 q 38 66 32 56 q 56 83 44 76 q 83 85 68 89 q 113 81 99 81 q 140 82 126 81 q 255 104 199 86 q 358 156 311 122 q 439 242 407 189 q 493 351 471 294 q 434 340 464 344 q 374 338 404 336 q 222 378 297 340 q 103 478 147 415 q 69 547 81 508 q 57 641 56 592 q 74 735 58 690 q 111 829 89 785 q 175 915 138 875 q 260 978 213 954 q 358 998 304 1001 q 460 975 413 994 q 547 913 508 954 q 613 826 585 872 q 664 703 647 768 q 683 571 681 638 q 678 458 686 514 q 653 347 669 401 q 603 219 633 282 q 526 108 574 157 m 382 419 q 453 426 418 417 q 521 446 488 435 q 535 535 532 490 q 535 624 539 579 q 518 698 531 661 q 486 767 506 735 q 422 849 457 815 q 389 873 407 863 q 351 886 371 883 q 303 883 324 890 q 270 865 285 876 q 242 840 256 854 q 175 744 201 800 q 147 631 149 689 q 149 592 147 611 q 157 556 150 574 q 180 514 164 533 q 215 479 196 494 q 382 419 290 424 z "},"\u0000":{"ha":0,"x_min":0,"x_max":0,"o":""},"\r":{"ha":417,"x_min":0,"x_max":0,"o":""}," ":{"ha":417,"x_min":0,"x_max":0,"o":""},"!":{"ha":281,"x_min":46,"x_max":229,"o":"m 183 349 q 142 342 164 342 q 104 354 119 342 q 67 402 81 372 q 51 463 54 432 q 49 617 46 540 q 58 771 53 693 q 60 806 58 779 q 63 863 61 832 q 67 919 65 893 q 68 954 68 946 q 84 992 69 975 q 117 1019 99 1010 q 151 1025 132 1026 q 185 1017 169 1024 q 211 994 200 1010 q 228 963 222 979 q 229 949 229 958 q 229 927 229 939 q 229 905 229 915 q 229 890 229 894 q 219 707 224 799 q 219 524 214 615 q 222 498 219 515 q 225 462 224 481 q 226 426 226 443 q 225 401 226 408 q 209 371 219 386 q 183 349 199 356 m 196 28 q 153 -1 181 3 q 106 19 125 -4 q 94 43 97 31 q 89 69 92 56 q 92 108 85 90 q 113 137 99 126 q 145 149 126 147 q 183 138 164 150 q 211 103 203 126 q 208 60 219 79 q 202 43 204 51 q 196 28 200 35 z "},"\"":{"ha":331,"x_min":31,"x_max":304,"o":"m 143 790 q 140 763 146 775 q 124 744 135 751 q 99 734 114 736 q 71 738 85 732 q 48 753 58 743 q 33 775 38 763 q 31 807 31 785 q 31 853 31 829 q 33 900 32 878 q 35 932 35 922 q 37 949 35 936 q 40 965 39 961 q 62 989 47 981 q 92 994 76 997 q 115 981 103 992 q 129 958 126 969 q 137 892 136 925 q 139 824 138 858 q 143 790 139 807 m 301 788 q 299 760 304 772 q 283 741 293 749 q 258 731 272 733 q 229 735 243 729 q 192 772 201 744 q 189 803 189 781 q 190 849 189 825 q 192 896 190 874 q 193 928 193 918 q 194 945 193 932 q 199 961 196 958 q 250 990 214 994 q 272 976 261 988 q 286 954 283 965 q 294 888 293 922 q 297 821 296 854 q 301 788 297 801 z "},"«":{"ha":331,"x_min":31,"x_max":304,"o":"m 143 790 q 140 763 146 775 q 124 744 135 751 q 99 734 114 736 q 71 738 85 732 q 48 753 58 743 q 33 775 38 763 q 31 807 31 785 q 31 853 31 829 q 33 900 32 878 q 35 932 35 922 q 37 949 35 936 q 40 965 39 961 q 62 989 47 981 q 92 994 76 997 q 115 981 103 992 q 129 958 126 969 q 137 892 136 925 q 139 824 138 858 q 143 790 139 807 m 301 788 q 299 760 304 772 q 283 741 293 749 q 258 731 272 733 q 229 735 243 729 q 192 772 201 744 q 189 803 189 781 q 190 849 189 825 q 192 896 190 874 q 193 928 193 918 q 194 945 193 932 q 199 961 196 958 q 250 990 214 994 q 272 976 261 988 q 286 954 283 965 q 294 888 293 922 q 297 821 296 854 q 301 788 297 801 z "},"»":{"ha":331,"x_min":31,"x_max":304,"o":"m 143 790 q 140 763 146 775 q 124 744 135 751 q 99 734 114 736 q 71 738 85 732 q 48 753 58 743 q 33 775 38 763 q 31 807 31 785 q 31 853 31 829 q 33 900 32 878 q 35 932 35 922 q 37 949 35 936 q 40 965 39 961 q 62 989 47 981 q 92 994 76 997 q 115 981 103 992 q 129 958 126 969 q 137 892 136 925 q 139 824 138 858 q 143 790 139 807 m 301 788 q 299 760 304 772 q 283 741 293 749 q 258 731 272 733 q 229 735 243 729 q 192 772 201 744 q 189 803 189 781 q 190 849 189 825 q 192 896 190 874 q 193 928 193 918 q 194 945 193 932 q 199 961 196 958 q 250 990 214 994 q 272 976 261 988 q 286 954 283 965 q 294 888 293 922 q 297 821 296 854 q 301 788 297 801 z "},"„":{"ha":331,"x_min":31,"x_max":304,"o":"m 143 790 q 140 763 146 775 q 124 744 135 751 q 99 734 114 736 q 71 738 85 732 q 48 753 58 743 q 33 775 38 763 q 31 807 31 785 q 31 853 31 829 q 33 900 32 878 q 35 932 35 922 q 37 949 35 936 q 40 965 39 961 q 62 989 47 981 q 92 994 76 997 q 115 981 103 992 q 129 958 126 969 q 137 892 136 925 q 139 824 138 858 q 143 790 139 807 m 301 788 q 299 760 304 772 q 283 741 293 749 q 258 731 272 733 q 229 735 243 729 q 192 772 201 744 q 189 803 189 781 q 190 849 189 825 q 192 896 190 874 q 193 928 193 918 q 194 945 193 932 q 199 961 196 958 q 250 990 214 994 q 272 976 261 988 q 286 954 283 965 q 294 888 293 922 q 297 821 296 854 q 301 788 297 801 z "},"‟":{"ha":331,"x_min":31,"x_max":304,"o":"m 143 790 q 140 763 146 775 q 124 744 135 751 q 99 734 114 736 q 71 738 85 732 q 48 753 58 743 q 33 775 38 763 q 31 807 31 785 q 31 853 31 829 q 33 900 32 878 q 35 932 35 922 q 37 949 35 936 q 40 965 39 961 q 62 989 47 981 q 92 994 76 997 q 115 981 103 992 q 129 958 126 969 q 137 892 136 925 q 139 824 138 858 q 143 790 139 807 m 301 788 q 299 760 304 772 q 283 741 293 749 q 258 731 272 733 q 229 735 243 729 q 192 772 201 744 q 189 803 189 781 q 190 849 189 825 q 192 896 190 874 q 193 928 193 918 q 194 945 193 932 q 199 961 196 958 q 250 990 214 994 q 272 976 261 988 q 286 954 283 965 q 294 888 293 922 q 297 821 296 854 q 301 788 297 801 z "},"#":{"ha":924,"x_min":15,"x_max":907,"o":"m 601 -49 q 557 -92 586 -76 q 499 -92 528 -107 q 463 -66 479 -82 q 442 -31 447 -50 q 433 23 433 -4 q 436 78 433 50 q 453 172 443 125 q 475 264 463 218 q 388 256 431 261 q 300 244 344 251 q 290 181 294 213 q 279 117 285 149 q 276 86 278 106 q 269 46 274 67 q 260 7 265 25 q 247 -18 256 -11 q 210 -37 231 -33 q 172 -33 190 -40 q 140 -11 153 -26 q 122 28 126 4 q 119 69 118 49 q 125 111 121 90 q 130 131 126 115 q 138 164 133 146 q 145 197 142 182 q 150 218 149 213 q 133 214 146 217 q 105 208 119 211 q 77 202 90 204 q 60 200 64 200 q 32 210 43 200 q 18 233 21 219 q 20 260 15 246 q 40 283 25 275 q 56 291 43 286 q 72 297 68 296 q 97 293 86 300 q 135 302 117 297 q 174 311 154 307 q 181 339 175 318 q 192 383 186 360 q 203 428 197 407 q 210 456 208 449 q 195 453 206 456 q 173 449 185 451 q 151 445 161 447 q 136 443 140 443 q 120 444 128 443 q 106 447 113 444 q 88 463 93 453 q 83 485 82 474 q 90 506 83 496 q 110 521 97 517 q 115 523 111 521 q 121 526 119 525 q 142 531 126 528 q 176 538 158 535 q 210 544 194 542 q 232 549 226 547 q 243 595 235 560 q 262 671 251 631 q 281 747 272 711 q 293 793 290 782 q 297 807 294 797 q 303 827 300 817 q 310 847 307 838 q 313 861 313 857 q 325 885 315 876 q 347 897 335 894 q 372 894 360 899 q 393 876 385 889 q 399 853 400 865 q 399 829 399 842 q 394 777 399 814 q 383 699 389 740 q 369 620 376 657 q 360 569 363 583 q 467 583 414 576 q 575 596 521 590 q 592 647 579 608 q 620 731 606 686 q 647 814 635 775 q 663 865 658 853 q 668 879 665 872 q 674 893 671 886 q 710 916 685 915 q 749 896 735 917 q 760 860 757 882 q 757 808 761 844 q 747 732 753 772 q 733 656 740 692 q 724 606 726 621 q 756 605 733 606 q 801 603 778 604 q 847 598 825 601 q 878 590 868 594 q 901 565 896 581 q 902 533 907 549 q 883 509 897 518 q 847 506 868 500 q 819 508 839 507 q 776 510 799 510 q 732 510 753 511 q 703 510 711 510 q 697 483 701 503 q 686 439 692 463 q 676 394 681 415 q 669 368 671 374 q 740 369 706 369 q 810 365 774 369 q 834 358 822 364 q 853 342 846 353 q 858 316 860 329 q 849 293 857 303 q 828 279 840 283 q 801 279 815 275 q 797 281 800 281 q 769 280 790 281 q 723 278 747 279 q 677 275 699 276 q 649 274 656 274 q 626 155 635 214 q 614 35 617 96 q 615 6 614 19 q 613 -22 617 -8 q 607 -35 610 -29 q 601 -49 604 -42 m 343 476 q 338 449 342 469 q 329 406 333 429 q 322 363 325 383 q 317 338 318 343 q 409 349 363 344 q 501 358 456 354 q 509 386 503 365 q 523 430 515 407 q 536 474 531 453 q 544 501 542 494 q 443 490 493 496 q 343 476 393 483 z "},"$":{"ha":714,"x_min":39,"x_max":685,"o":"m 443 -92 q 433 -118 442 -107 q 411 -135 424 -129 q 385 -142 399 -142 q 358 -133 371 -142 q 321 -95 335 -119 q 296 -47 307 -71 q 272 27 281 -11 q 257 106 263 65 l 169 114 q 152 113 167 114 q 135 111 138 111 q 110 115 122 113 q 88 124 97 117 q 53 157 64 140 q 40 206 39 181 q 52 251 40 231 q 85 286 64 272 q 135 300 107 300 q 168 294 151 300 q 200 279 185 288 q 226 272 206 276 q 253 267 246 268 q 265 399 256 333 q 286 532 275 465 q 221 526 254 529 q 156 532 188 524 q 138 539 149 533 q 115 551 126 544 q 94 565 104 557 q 81 578 85 572 q 67 597 74 588 q 56 618 60 607 q 46 688 44 651 q 61 757 47 725 q 119 854 83 808 q 200 932 154 900 q 288 974 240 960 q 385 990 336 989 q 389 1005 386 994 q 394 1028 392 1015 q 400 1051 397 1040 q 404 1065 403 1061 q 410 1078 407 1072 q 418 1090 413 1085 q 440 1105 428 1101 q 465 1104 453 1108 q 485 1090 476 1100 q 496 1064 494 1079 q 494 1050 496 1057 q 490 1036 492 1043 q 483 1007 486 1021 q 478 978 481 993 q 563 939 522 965 q 628 874 603 913 q 637 859 632 869 q 647 837 642 849 q 656 814 651 825 q 660 797 660 803 q 651 767 660 779 q 627 749 642 754 q 597 746 613 743 q 569 763 582 749 q 556 783 561 772 q 540 801 551 794 q 497 824 521 815 q 450 838 474 832 q 431 740 440 789 q 414 642 422 690 q 500 620 457 635 q 578 578 543 606 q 658 467 632 535 q 672 328 685 399 q 644 252 665 288 q 594 189 624 217 q 566 169 581 178 q 536 151 551 160 q 461 122 500 132 q 382 107 422 111 q 404 26 390 63 q 414 2 407 18 q 428 -32 421 -14 q 440 -67 435 -50 q 443 -92 444 -83 m 217 663 q 261 651 238 651 q 308 649 285 650 q 327 738 318 693 q 346 826 336 782 q 277 778 307 810 q 228 708 247 746 q 219 690 222 699 q 214 669 215 681 q 217 663 211 665 m 396 536 q 378 398 385 467 q 371 258 372 329 q 436 263 403 260 q 499 282 469 267 q 544 328 526 297 q 564 392 561 360 q 551 457 567 424 q 507 507 535 490 q 453 528 483 522 q 396 536 424 533 z "},"%":{"ha":989,"x_min":22,"x_max":971,"o":"m 317 540 q 257 488 293 510 q 181 465 221 465 q 137 475 158 467 q 96 497 115 483 q 45 565 63 524 q 25 654 28 607 q 33 749 22 701 q 63 835 43 797 q 88 877 74 857 q 119 913 101 897 q 174 945 143 932 q 236 951 206 958 q 279 956 256 958 q 319 939 303 953 q 332 924 325 935 q 346 901 339 914 q 358 877 353 889 q 367 860 364 865 q 377 826 374 843 q 381 790 381 808 q 383 757 382 774 q 382 725 383 740 q 363 628 379 676 q 317 540 347 579 m 357 8 q 341 1 349 6 q 325 -3 333 -3 q 292 7 307 -4 q 274 36 278 18 q 274 55 272 42 q 279 83 276 68 q 285 110 282 97 q 292 131 289 124 q 319 217 304 175 q 350 301 335 260 q 486 614 410 461 q 661 906 563 767 q 678 925 668 917 q 700 936 689 933 q 722 941 711 939 q 743 940 732 943 q 781 917 764 935 q 794 878 797 900 q 790 854 792 867 q 782 832 789 842 q 760 797 776 824 q 724 742 743 771 q 690 687 706 713 q 668 653 674 661 q 583 500 622 578 q 508 343 544 422 q 484 285 501 328 q 446 195 467 243 q 407 105 425 147 q 381 49 389 63 q 357 8 383 19 m 178 593 q 201 597 189 589 q 221 611 214 604 q 251 655 240 631 q 269 704 263 679 q 273 717 271 708 q 276 735 275 725 q 277 754 276 746 q 278 767 278 763 q 272 795 275 782 q 261 819 268 808 q 243 835 254 831 q 225 850 232 840 q 205 835 214 843 q 188 815 196 826 q 154 744 164 783 q 149 665 144 704 q 151 647 149 658 q 157 626 153 636 q 166 606 161 615 q 178 593 171 597 m 786 -36 q 740 -39 763 -40 q 694 -29 717 -37 q 649 0 671 -18 q 615 42 628 18 q 592 131 593 83 q 607 228 589 179 q 657 314 625 278 q 703 355 676 338 q 760 378 729 372 q 763 380 763 378 q 767 385 764 382 q 792 401 778 394 q 819 404 806 407 q 857 396 839 401 q 890 379 875 390 q 925 347 908 368 q 955 293 944 324 q 968 232 965 263 q 958 145 971 189 q 922 64 946 101 q 863 -1 897 26 q 786 -36 828 -28 m 725 99 q 745 85 733 88 q 769 88 757 83 q 794 101 782 92 q 815 119 806 110 q 848 174 836 143 q 854 235 860 204 q 828 272 849 261 q 819 272 824 274 q 810 272 814 271 q 783 281 793 275 q 746 242 763 264 q 719 194 729 219 q 712 144 713 171 q 725 99 711 118 z "},"&":{"ha":769,"x_min":44,"x_max":796,"o":"m 778 -6 q 751 -24 767 -22 q 719 -21 736 -26 q 683 -4 701 -15 q 647 18 664 7 q 564 78 604 46 q 483 144 524 111 q 408 80 449 108 q 322 29 367 51 q 239 -1 283 10 q 151 -3 194 -12 q 92 26 117 4 q 57 79 68 47 q 47 146 46 111 q 56 214 49 181 q 106 349 71 285 q 183 472 140 414 q 125 568 151 518 q 79 671 99 618 q 53 762 63 715 q 51 856 44 808 q 55 864 53 857 q 58 874 57 871 q 79 924 65 900 q 113 967 93 947 q 172 1008 138 993 q 242 1031 206 1024 q 319 1040 279 1038 q 396 1035 358 1042 q 446 1021 421 1029 q 492 997 471 1013 q 530 949 515 978 q 543 890 544 921 q 522 801 542 844 q 475 718 501 757 q 410 627 444 671 q 342 540 376 583 q 424 428 381 482 q 513 322 467 375 q 560 435 543 375 q 571 556 578 496 q 567 572 569 564 q 565 588 565 579 q 581 623 564 610 q 622 633 599 636 q 653 612 643 631 q 660 572 664 593 q 657 551 657 561 q 657 531 657 542 q 633 388 657 458 q 572 257 610 318 q 648 178 608 217 q 724 100 688 140 q 740 82 732 90 q 758 64 749 74 q 789 37 782 58 q 781 -3 796 15 l 778 -6 m 217 797 q 249 703 226 749 q 296 614 271 657 q 374 714 336 663 q 439 824 411 765 q 455 871 447 843 q 447 913 463 899 q 413 931 435 925 q 366 937 390 936 q 318 935 342 938 q 278 926 294 932 q 235 904 256 919 q 210 867 214 889 q 209 853 208 863 q 211 832 210 843 q 215 811 213 821 q 217 797 217 801 m 139 101 q 160 82 146 88 q 190 77 174 76 q 224 83 207 78 q 256 93 240 88 q 342 139 301 111 q 419 201 383 167 q 323 298 368 247 q 235 403 278 349 q 190 329 211 367 q 154 251 169 292 q 140 203 146 228 q 132 151 133 178 q 132 126 131 139 q 139 101 133 113 z "},"'":{"ha":172,"x_min":31,"x_max":146,"o":"m 143 799 q 140 772 146 783 q 124 752 135 760 q 99 742 114 744 q 71 746 85 740 q 48 761 58 751 q 33 783 38 771 q 31 814 31 792 q 31 860 31 836 q 33 907 32 885 q 35 939 35 929 q 37 956 35 943 q 40 974 39 969 q 92 1001 57 1006 q 115 988 103 999 q 129 965 126 976 q 137 899 136 933 q 139 832 138 865 q 143 799 139 815 z "},"‚":{"ha":172,"x_min":31,"x_max":146,"o":"m 143 799 q 140 772 146 783 q 124 752 135 760 q 99 742 114 744 q 71 746 85 740 q 48 761 58 751 q 33 783 38 771 q 31 814 31 792 q 31 860 31 836 q 33 907 32 885 q 35 939 35 929 q 37 956 35 943 q 40 974 39 969 q 92 1001 57 1006 q 115 988 103 999 q 129 965 126 976 q 137 899 136 933 q 139 832 138 865 q 143 799 139 815 z "},"‛":{"ha":172,"x_min":31,"x_max":146,"o":"m 143 799 q 140 772 146 783 q 124 752 135 760 q 99 742 114 744 q 71 746 85 740 q 48 761 58 751 q 33 783 38 771 q 31 814 31 792 q 31 860 31 836 q 33 907 32 885 q 35 939 35 929 q 37 956 35 943 q 40 974 39 969 q 92 1001 57 1006 q 115 988 103 999 q 129 965 126 976 q 137 899 136 933 q 139 832 138 865 q 143 799 139 815 z "},"‹":{"ha":172,"x_min":31,"x_max":146,"o":"m 143 799 q 140 772 146 783 q 124 752 135 760 q 99 742 114 744 q 71 746 85 740 q 48 761 58 751 q 33 783 38 771 q 31 814 31 792 q 31 860 31 836 q 33 907 32 885 q 35 939 35 929 q 37 956 35 943 q 40 974 39 969 q 92 1001 57 1006 q 115 988 103 999 q 129 965 126 976 q 137 899 136 933 q 139 832 138 865 q 143 799 139 815 z "},"›":{"ha":172,"x_min":31,"x_max":146,"o":"m 143 799 q 140 772 146 783 q 124 752 135 760 q 99 742 114 744 q 71 746 85 740 q 48 761 58 751 q 33 783 38 771 q 31 814 31 792 q 31 860 31 836 q 33 907 32 885 q 35 939 35 929 q 37 956 35 943 q 40 974 39 969 q 92 1001 57 1006 q 115 988 103 999 q 129 965 126 976 q 137 899 136 933 q 139 832 138 865 q 143 799 139 815 z "},"(":{"ha":614,"x_min":38,"x_max":618,"o":"m 526 -79 q 397 -88 464 -90 q 272 -62 331 -86 q 187 -12 228 -43 q 121 61 146 19 q 65 206 83 129 q 44 361 47 283 q 89 673 38 521 q 244 943 140 825 q 303 1002 272 975 q 369 1047 333 1029 q 404 1061 386 1056 q 442 1067 422 1067 q 539 1040 494 1069 q 551 1031 543 1038 q 569 1018 560 1025 q 586 1004 578 1011 q 597 994 594 997 q 615 957 611 978 q 611 917 618 936 q 589 886 604 899 q 551 872 574 874 q 535 873 543 871 q 519 872 526 875 q 504 869 515 871 q 481 866 493 868 q 460 862 469 864 q 446 857 450 860 q 413 830 428 846 q 383 797 397 814 q 322 710 350 756 q 276 614 294 664 q 242 468 251 543 q 242 318 233 393 q 249 270 243 299 q 263 213 254 242 q 283 160 271 183 q 313 126 296 136 q 354 109 332 115 q 400 101 376 103 q 422 102 406 101 q 458 103 439 103 q 493 104 476 104 q 515 103 510 104 q 552 90 536 100 q 578 63 568 79 q 590 26 588 46 q 588 -14 593 6 q 565 -56 582 -36 q 526 -79 549 -75 z "},")":{"ha":611,"x_min":-7,"x_max":575,"o":"m 213 -81 q 141 -86 179 -92 q 74 -61 103 -81 q 61 -53 69 -60 q 43 -40 53 -47 q 26 -25 33 -32 q 15 -15 18 -18 q -3 22 0 1 q 0 62 -7 43 q 22 93 7 81 q 61 107 38 106 q 76 106 68 107 q 93 107 85 104 q 108 108 97 107 q 131 112 119 110 q 152 117 142 114 q 167 122 163 119 q 199 149 185 133 q 228 181 214 164 q 289 269 261 222 q 335 365 317 315 q 369 511 360 436 q 369 661 379 586 q 362 708 367 679 q 349 765 357 736 q 328 818 340 794 q 300 851 317 842 q 257 869 279 863 q 211 876 235 876 q 189 876 206 876 q 153 876 172 876 q 118 875 135 875 q 96 875 101 875 q 59 889 75 878 q 33 917 43 900 q 21 953 24 933 q 24 993 18 972 q 47 1034 31 1014 q 85 1057 63 1054 q 215 1067 149 1068 q 340 1040 281 1065 q 426 990 385 1021 q 490 918 467 960 q 547 773 529 850 q 568 618 564 696 q 538 354 575 485 q 428 114 501 224 q 360 26 396 68 q 279 -47 324 -15 q 213 -81 247 -68 z "},"*":{"ha":508,"x_min":31,"x_max":482,"o":"m 257 511 q 240 487 253 494 q 214 481 228 479 q 189 492 200 482 q 176 518 178 501 q 178 533 176 521 q 181 547 179 544 q 192 613 189 579 q 199 678 196 646 q 115 624 154 653 q 91 603 106 607 q 64 606 76 600 q 44 626 51 613 q 42 658 36 640 q 47 669 43 664 q 56 678 51 674 q 78 695 61 683 q 115 721 96 707 q 151 747 135 735 q 175 763 168 758 l 83 825 q 66 833 75 831 q 50 842 57 836 q 32 869 33 851 q 43 903 31 888 q 60 913 50 910 q 82 914 71 917 q 107 903 90 913 q 142 883 124 894 q 176 861 160 872 q 199 846 192 850 q 196 879 197 863 q 192 913 194 896 q 188 928 190 918 q 184 951 186 939 q 181 973 182 963 q 183 989 181 983 q 215 1015 192 1013 q 254 997 239 1018 q 267 965 261 988 q 275 916 272 942 q 280 867 278 890 q 282 831 282 843 q 311 849 292 836 q 353 874 331 861 q 397 898 376 888 q 429 908 418 908 q 453 901 443 910 q 468 881 464 893 q 469 857 472 869 q 454 836 467 844 q 430 821 449 832 q 390 797 411 810 q 350 772 369 783 q 325 757 331 761 q 388 716 357 736 q 454 681 419 696 q 475 657 471 674 q 464 616 482 633 q 422 607 446 599 q 349 644 383 622 q 281 689 314 665 q 277 613 279 651 q 265 539 275 575 q 262 525 264 532 q 257 511 260 518 z "},"+":{"ha":638,"x_min":14,"x_max":619,"o":"m 351 128 q 313 119 332 118 q 276 128 293 119 q 247 151 260 136 q 229 188 235 167 q 222 228 222 207 q 224 271 222 250 q 226 315 225 293 q 231 358 228 336 q 156 356 193 357 q 81 360 118 356 q 38 371 56 363 q 19 388 25 376 q 15 412 14 400 q 22 435 15 424 q 42 453 29 446 q 82 464 53 458 q 143 475 111 469 q 205 484 175 481 q 247 489 235 488 q 252 522 249 497 q 260 576 256 547 q 268 629 264 604 q 275 663 272 654 q 285 683 278 674 q 301 697 292 692 q 334 705 318 706 q 363 695 350 704 q 383 672 375 686 q 389 639 390 657 q 386 570 386 604 q 383 503 386 536 q 442 506 413 506 q 500 510 471 507 q 511 511 506 510 q 522 514 517 513 q 540 515 531 515 q 558 513 549 514 q 585 502 572 511 q 606 482 597 493 q 619 440 619 461 q 606 402 618 419 q 575 374 594 385 q 531 364 556 364 q 519 365 528 364 q 508 367 511 367 q 443 364 476 364 q 378 363 410 364 q 378 338 378 356 q 378 299 378 319 q 380 262 379 279 q 382 238 381 244 q 386 224 382 229 q 390 175 400 201 q 375 147 385 160 q 351 128 365 135 z "},",":{"ha":194,"x_min":-21,"x_max":172,"o":"m 57 -194 q 19 -204 38 -204 q -6 -194 7 -204 q -18 -176 -15 -186 q -18 -156 -21 -165 q -8 -137 -15 -146 q 11 -125 0 -129 q 35 -104 25 -122 q 47 -72 44 -86 q 47 -51 47 -65 q 44 -22 46 -37 q 41 7 43 -7 q 38 28 39 21 q 34 33 36 29 q 32 38 32 36 q 23 65 25 50 q 26 93 21 81 q 59 135 36 122 q 106 147 82 149 q 150 127 131 144 q 172 79 169 110 q 172 63 172 75 q 169 37 171 50 q 165 11 167 24 q 163 -6 164 -1 q 143 -83 158 -46 q 103 -153 128 -121 q 83 -176 93 -164 q 57 -194 72 -187 z "},"-":{"ha":814,"x_min":19,"x_max":793,"o":"m 775 413 q 790 360 793 388 q 771 312 788 332 q 728 284 754 292 q 674 289 703 276 q 665 295 671 290 q 656 300 658 300 q 632 304 650 303 q 607 306 614 306 q 474 308 540 310 q 340 301 407 306 q 206 293 274 297 q 72 289 139 289 q 58 292 65 289 q 44 297 51 294 q 24 317 29 304 q 22 344 19 331 q 35 369 25 357 q 63 385 46 381 q 199 414 128 401 q 416 449 307 435 q 636 458 525 463 q 658 457 643 458 q 690 453 674 456 q 722 447 707 450 q 743 440 736 444 q 760 428 751 435 q 775 413 768 422 z "},".":{"ha":185,"x_min":21,"x_max":165,"o":"m 115 21 q 106 18 110 21 q 96 15 101 15 q 67 22 81 14 q 42 41 53 29 q 26 68 32 53 q 24 99 21 83 q 26 112 25 106 q 31 125 28 118 q 60 158 40 147 q 100 167 79 168 q 138 155 121 167 q 161 119 154 143 q 162 97 164 108 q 163 75 160 86 q 151 39 165 54 q 115 21 136 24 z "},"/":{"ha":486,"x_min":-3,"x_max":604,"o":"m 74 -111 q 47 -118 61 -118 q 22 -112 33 -118 q 4 -97 11 -107 q -3 -72 -3 -86 q 13 24 -1 -40 q 47 166 26 88 q 92 331 67 244 q 140 495 117 417 q 183 636 164 574 q 214 729 203 699 q 310 979 258 856 q 417 1225 361 1103 q 454 1267 428 1249 q 508 1283 481 1286 q 540 1277 524 1282 q 568 1261 557 1272 q 588 1235 579 1250 q 600 1203 597 1219 q 595 1147 604 1175 q 567 1100 586 1119 q 555 1081 563 1094 q 540 1050 547 1067 q 526 1019 532 1033 q 517 999 519 1004 q 438 826 475 913 q 365 653 401 740 q 340 585 357 633 q 300 473 322 536 q 254 340 278 410 q 209 207 231 269 q 171 95 188 144 q 147 26 154 46 q 135 -7 143 14 q 118 -49 128 -28 q 97 -87 108 -69 q 74 -111 85 -106 z "},":":{"ha":236,"x_min":31,"x_max":207,"o":"m 157 543 q 110 517 138 522 q 63 531 83 511 q 49 544 56 538 q 40 560 43 550 q 39 608 31 582 q 67 647 47 633 q 86 662 78 654 q 106 675 94 669 q 144 680 125 683 q 178 664 164 676 q 200 633 193 651 q 203 594 207 615 q 186 563 199 576 q 157 543 174 549 m 169 26 q 103 13 139 3 q 43 54 67 22 q 31 97 32 69 q 42 139 31 124 q 60 160 50 150 q 82 172 69 169 q 108 176 94 175 q 133 172 121 176 q 159 154 149 167 q 175 128 169 142 q 178 122 175 125 q 183 118 182 119 q 197 83 196 103 q 189 47 199 64 q 181 36 186 40 q 169 26 175 32 z "},";":{"ha":232,"x_min":8,"x_max":201,"o":"m 172 539 q 144 506 163 519 q 106 489 126 492 q 74 494 89 488 q 49 512 60 500 q 34 539 39 524 q 31 571 29 554 q 36 592 31 582 q 44 614 42 603 q 69 650 51 638 q 107 665 86 663 q 147 657 128 667 q 179 625 167 647 q 189 579 190 601 q 183 558 188 568 q 172 539 178 549 m 86 -194 q 49 -204 67 -204 q 24 -194 36 -204 q 11 -176 14 -186 q 11 -156 8 -165 q 22 -137 14 -146 q 40 -125 29 -129 q 64 -104 54 -122 q 76 -72 74 -86 q 76 -51 76 -65 q 74 -22 75 -37 q 70 7 72 -7 q 67 28 68 21 q 63 33 65 29 q 61 38 61 36 q 52 65 54 50 q 56 93 50 81 q 88 135 65 122 q 135 147 111 149 q 179 127 160 144 q 201 79 199 110 q 201 63 201 75 q 198 37 200 50 q 194 11 196 24 q 192 -6 193 -1 q 172 -83 188 -46 q 132 -153 157 -121 q 112 -176 122 -164 q 86 -194 101 -187 z "},"<":{"ha":658,"x_min":22,"x_max":631,"o":"m 626 194 q 627 167 631 181 q 614 144 624 154 q 590 129 604 135 q 563 124 576 124 q 505 128 533 124 q 449 138 476 132 q 283 172 365 154 q 119 215 201 190 q 69 242 93 224 q 35 286 46 261 q 26 343 22 314 q 50 396 31 372 q 125 464 82 435 q 213 518 168 493 q 282 555 235 531 q 381 603 329 579 q 482 644 433 626 q 557 663 531 663 q 585 659 571 663 q 608 644 599 656 q 624 604 625 628 q 607 565 624 581 q 584 550 603 560 q 560 538 565 540 q 386 445 472 492 q 225 336 300 399 q 334 310 279 321 q 444 286 389 299 q 513 271 479 279 q 578 249 546 263 q 608 227 594 242 q 626 194 621 213 z "},"=":{"ha":639,"x_min":28,"x_max":614,"o":"m 318 490 q 251 481 285 485 q 183 478 218 476 q 142 481 164 479 q 103 489 121 483 q 74 506 85 494 q 63 538 63 518 q 70 560 63 549 q 88 578 78 571 q 108 585 97 585 q 129 589 118 586 q 181 599 142 590 q 264 618 219 608 q 347 637 308 628 q 399 649 386 646 q 444 656 421 654 q 490 660 467 658 q 499 663 493 660 q 507 667 504 667 q 537 670 522 669 q 564 664 551 671 q 593 642 579 656 q 610 611 607 628 q 613 581 613 596 q 607 554 614 567 q 590 531 600 542 q 568 513 581 519 q 500 511 535 497 q 496 513 497 511 q 492 514 494 514 q 458 510 483 514 q 405 503 433 507 q 351 495 376 499 q 318 490 326 492 m 493 210 q 463 207 485 207 q 417 208 442 207 q 372 211 393 210 q 342 213 350 213 q 246 211 293 213 q 150 208 199 210 q 99 209 125 208 q 50 222 72 210 q 33 243 39 231 q 28 269 28 256 q 35 294 29 282 q 54 314 42 307 q 116 332 72 324 q 208 348 160 340 q 302 360 257 356 q 368 365 347 364 q 418 369 393 368 q 468 365 443 369 q 496 359 482 363 q 521 347 510 356 q 547 311 540 332 q 550 269 554 290 q 531 232 546 249 q 493 210 517 215 z "},">":{"ha":596,"x_min":24,"x_max":571,"o":"m 161 110 q 114 98 144 99 q 65 108 83 97 q 47 126 54 115 q 32 149 39 138 q 31 198 24 168 q 53 243 38 228 q 88 270 63 253 q 146 308 113 288 q 215 351 179 329 q 285 394 251 374 q 344 430 318 414 q 382 454 371 446 q 319 492 351 475 q 253 525 286 510 q 182 558 217 542 q 111 589 147 575 q 76 622 88 599 q 74 626 75 625 q 72 629 74 626 q 65 663 60 644 q 88 689 69 682 l 97 699 q 156 706 125 714 q 347 636 250 679 q 421 603 385 621 q 490 563 457 586 q 543 513 518 544 q 562 485 554 500 q 571 453 569 469 q 565 410 571 432 q 547 372 560 389 q 492 318 525 340 q 426 275 460 296 q 293 194 360 233 q 161 110 226 154 z "},"?":{"ha":608,"x_min":26,"x_max":586,"o":"m 346 343 q 293 322 321 322 q 242 335 265 321 q 206 374 219 349 q 199 431 193 399 q 210 471 201 451 q 231 508 219 490 q 299 622 263 568 q 358 708 326 667 q 421 793 390 749 q 442 832 433 811 q 449 875 451 853 q 435 895 446 886 q 414 908 425 904 q 347 925 382 922 q 276 922 311 928 q 246 915 261 919 q 215 903 231 910 q 175 877 193 892 q 142 843 157 863 q 111 799 121 822 q 110 774 108 790 q 115 741 111 758 q 122 708 118 724 q 129 683 126 692 q 165 662 154 683 q 163 618 176 640 q 142 605 156 608 q 118 601 129 601 q 69 622 88 599 q 56 649 63 631 q 43 688 49 667 q 34 729 38 710 q 29 758 31 749 q 26 785 26 772 q 29 813 26 799 q 50 862 36 839 q 82 906 64 885 q 140 959 106 936 q 210 994 174 982 q 335 1016 269 1015 q 461 996 401 1017 q 543 937 510 978 q 583 844 576 896 q 583 804 586 825 q 576 764 581 783 q 550 689 568 725 q 511 618 532 653 q 483 574 503 606 q 440 508 463 543 q 399 440 418 472 q 376 393 381 407 q 346 343 367 363 m 299 33 q 225 29 263 13 q 194 65 201 40 q 197 113 186 89 q 199 119 199 114 q 201 125 200 124 q 229 155 211 146 q 266 162 247 164 q 301 147 285 160 q 322 111 317 133 q 321 68 326 92 q 299 33 315 44 z "},"@":{"ha":911,"x_min":39,"x_max":875,"o":"m 604 -46 q 460 -86 535 -71 q 311 -86 385 -101 q 213 -42 258 -75 q 136 36 167 -8 q 94 110 111 71 q 67 189 78 149 q 44 310 49 249 q 42 433 39 371 q 67 576 46 506 q 122 710 88 646 q 192 808 150 763 q 288 883 235 854 q 379 922 332 907 q 475 940 426 936 q 562 940 518 943 q 646 921 606 936 q 705 894 676 910 q 757 856 733 878 q 845 724 815 803 q 871 568 875 646 q 860 494 868 531 q 839 421 851 457 q 797 344 824 381 q 733 281 769 307 q 694 258 715 267 q 651 249 674 250 q 610 253 631 247 q 572 269 589 258 q 541 301 554 282 q 519 339 528 319 q 468 260 496 299 q 401 194 440 222 q 319 176 364 168 q 247 222 275 185 q 208 317 217 264 q 204 424 200 371 q 233 527 210 476 q 290 618 256 578 q 343 665 314 644 q 404 697 372 686 q 489 707 444 711 q 571 683 533 703 q 609 652 592 672 q 629 608 626 632 q 629 576 629 593 q 626 544 629 560 q 624 527 625 542 q 621 508 622 513 q 608 429 608 471 q 613 390 607 413 q 633 361 618 367 q 656 362 644 358 q 675 372 667 365 q 716 414 700 388 q 743 468 732 440 q 765 553 760 508 q 760 640 769 599 q 701 746 746 701 q 597 806 657 790 q 487 810 544 818 q 381 776 429 803 q 315 730 344 758 q 264 667 286 701 q 213 557 231 617 q 193 436 196 497 q 194 356 190 396 q 207 278 199 317 q 225 213 214 246 q 253 151 236 181 q 278 115 264 132 q 313 86 293 97 q 365 68 336 71 q 422 68 394 65 q 575 101 501 75 q 721 157 649 128 q 753 161 732 161 q 785 156 775 161 q 824 115 813 143 q 818 61 836 86 q 802 40 811 50 q 781 25 793 31 q 693 -12 738 6 q 604 -46 649 -29 m 361 410 q 367 317 353 361 q 432 392 403 351 q 488 476 461 433 q 492 482 489 478 q 497 489 496 486 q 510 513 504 500 q 518 539 515 526 q 533 571 522 560 q 488 572 511 574 q 446 556 464 569 q 390 491 411 531 q 361 410 368 451 z "},"A":{"ha":790,"x_min":-1,"x_max":783,"o":"m 733 -75 q 716 -77 725 -76 q 699 -75 707 -78 q 662 -53 679 -68 q 633 -21 644 -37 q 616 14 626 -11 q 594 67 606 39 q 574 120 583 94 q 563 157 565 146 q 521 325 538 242 q 399 308 458 318 q 276 290 339 299 q 211 142 244 215 q 143 -7 178 68 q 122 -31 136 -24 q 93 -38 108 -39 q 65 -28 78 -37 q 46 -3 51 -19 q 43 13 43 4 q 46 29 43 22 q 91 150 69 90 q 136 271 113 210 q 94 266 115 268 q 51 261 74 264 q 22 266 35 258 q 4 285 10 274 q 1 310 -1 297 q 17 335 3 324 q 29 342 22 339 q 43 346 36 346 q 69 349 51 346 q 108 356 88 351 q 148 363 129 360 q 174 368 167 367 q 231 531 203 450 q 288 694 260 611 q 303 742 292 706 q 327 818 314 778 q 352 894 340 858 q 368 942 364 931 q 376 965 371 949 q 390 1000 382 982 q 404 1034 397 1018 q 415 1057 411 1050 q 444 1081 426 1072 q 482 1090 463 1090 q 506 1084 494 1090 q 528 1071 517 1078 q 541 1058 535 1065 q 550 1040 547 1050 q 559 995 553 1028 q 572 920 565 963 q 588 831 579 878 q 603 741 596 783 q 616 666 611 699 q 624 621 621 633 q 644 525 633 572 q 665 429 654 478 q 683 428 671 429 q 710 424 696 426 q 735 419 724 422 q 753 411 747 415 q 768 389 765 401 q 767 365 771 376 q 752 344 763 353 q 726 335 742 335 l 689 335 q 700 296 692 325 q 719 235 708 267 q 738 174 729 203 q 750 136 747 146 q 765 92 757 113 q 781 47 774 71 q 783 28 782 40 q 783 4 783 17 q 782 -20 783 -8 q 778 -37 781 -32 q 760 -61 771 -50 q 733 -75 749 -72 m 461 778 q 394 585 429 681 q 321 394 360 490 q 412 408 367 401 q 503 421 457 414 q 478 599 488 510 q 461 778 468 688 z "},"B":{"ha":835,"x_min":-1,"x_max":815,"o":"m 619 24 q 478 -18 551 -7 q 329 -29 404 -29 q 221 -24 275 -28 q 113 -18 167 -21 q 68 -11 90 -17 q 31 10 46 -6 q 7 44 15 22 q 3 85 -1 65 q 22 120 7 104 q 56 144 36 136 q 100 151 76 154 q 147 144 124 149 q 154 253 150 199 q 163 361 158 307 q 156 365 163 363 q 147 367 150 367 q 110 378 125 365 q 90 407 96 390 q 90 442 85 424 q 115 472 96 461 q 122 476 117 474 q 128 479 126 478 q 147 494 136 488 q 171 501 158 500 q 172 520 171 506 q 173 551 172 535 q 174 583 174 568 q 175 601 175 597 q 175 722 176 663 q 168 842 174 782 q 163 888 165 865 q 160 932 161 910 q 156 958 154 944 q 166 980 158 971 q 185 992 174 989 q 210 992 197 996 q 233 971 219 988 q 253 946 247 954 q 282 874 272 913 q 299 796 292 835 q 390 888 339 846 q 503 950 442 931 q 562 960 531 960 q 621 951 593 961 q 707 892 674 936 q 745 798 738 851 q 742 696 753 744 q 718 632 735 663 q 678 576 701 601 q 641 541 661 557 q 599 511 621 525 q 667 491 635 504 q 728 454 700 478 q 791 370 767 421 q 815 268 815 319 q 813 233 815 250 q 804 200 811 215 q 756 117 786 151 q 692 62 728 85 q 619 24 657 39 m 314 664 q 319 601 317 632 q 321 538 321 569 q 413 569 368 553 q 503 606 458 585 q 558 634 531 619 q 608 671 585 649 q 648 743 639 701 q 642 825 657 785 q 612 861 633 847 q 565 875 590 875 q 492 853 531 874 q 418 801 453 832 q 356 733 383 769 q 314 664 328 696 m 313 124 q 456 131 383 118 q 506 142 482 135 q 556 157 531 150 q 588 169 568 161 q 626 186 607 176 q 663 207 646 196 q 685 229 679 218 q 703 270 696 249 q 707 314 710 292 q 701 344 706 329 q 686 369 696 358 q 655 397 674 386 q 617 415 636 408 q 533 436 576 431 q 446 440 490 442 q 322 399 388 418 q 317 261 319 329 q 313 124 315 193 z "},"C":{"ha":804,"x_min":26,"x_max":799,"o":"m 438 17 q 326 7 385 1 q 221 40 268 13 q 114 142 156 76 q 49 310 68 219 q 28 492 29 400 q 56 685 26 588 q 143 860 85 782 q 228 941 179 906 q 335 996 278 976 q 418 1013 375 1010 q 503 1008 461 1017 q 558 992 531 1003 q 607 961 585 981 q 663 885 643 932 q 682 793 683 839 q 679 766 682 782 q 672 733 676 750 q 660 702 667 717 q 647 681 654 688 q 608 669 631 665 q 575 692 586 672 q 569 718 568 704 q 567 747 569 732 q 553 788 564 763 q 526 821 542 814 q 479 837 504 832 q 431 838 454 842 q 357 812 392 832 q 294 764 322 792 q 238 676 258 726 q 208 575 217 626 q 203 459 199 517 q 221 344 208 401 q 240 281 228 313 q 271 222 251 249 q 300 195 283 207 q 336 181 317 183 q 407 186 372 174 q 474 218 442 199 q 533 264 506 238 q 585 319 561 290 q 608 347 597 333 q 626 378 619 361 q 634 401 632 389 q 643 424 636 413 q 689 459 658 447 q 744 457 719 471 q 770 440 758 450 q 788 417 782 431 q 795 395 792 406 q 797 374 799 385 q 763 286 790 326 q 708 208 736 246 q 588 91 658 142 q 438 17 518 40 z "},"D":{"ha":797,"x_min":42,"x_max":778,"o":"m 150 1 q 128 -3 139 -1 q 107 1 118 -4 q 87 12 96 6 q 74 29 78 18 q 67 39 71 35 q 61 49 64 43 q 51 69 56 60 q 44 90 46 79 q 43 115 42 103 q 47 140 44 128 q 80 431 68 286 q 78 724 92 576 q 69 797 75 760 q 57 869 64 833 q 56 880 57 872 q 52 897 54 888 q 49 915 50 907 q 47 925 47 922 q 46 942 46 928 q 46 960 46 957 q 67 995 49 983 q 108 999 86 1007 q 128 983 115 996 q 146 964 142 971 q 157 947 150 960 q 171 921 164 935 q 184 894 178 907 q 193 875 190 881 q 216 807 207 842 q 232 738 225 772 q 285 836 256 788 q 354 921 314 885 q 460 971 399 961 q 575 957 521 981 q 627 927 603 946 q 671 886 651 908 q 738 776 714 838 q 768 649 763 714 q 759 428 778 540 q 683 222 740 315 q 558 90 638 144 q 390 17 478 36 q 292 12 343 6 q 197 36 242 18 q 175 17 192 31 q 150 1 158 4 m 240 190 q 284 178 263 186 q 329 172 306 171 q 407 192 369 175 q 479 232 444 210 q 530 276 507 250 q 568 332 553 301 q 598 401 588 364 q 615 474 608 438 q 626 672 636 575 q 609 745 622 708 q 572 810 596 782 q 538 840 557 826 q 496 856 518 853 q 451 851 474 858 q 411 831 429 844 q 358 775 379 808 q 319 707 336 742 q 280 597 294 654 q 256 481 265 539 q 255 452 254 474 q 256 424 256 431 q 251 307 256 365 q 240 190 247 249 z "},"E":{"ha":589,"x_min":32,"x_max":578,"o":"m 304 -1 q 245 -12 276 -11 q 186 -7 214 -14 q 116 31 147 4 q 68 94 85 58 q 38 208 44 147 q 35 326 32 268 q 72 597 43 464 q 121 867 100 731 q 125 892 124 879 q 128 919 126 906 q 131 944 128 932 q 142 967 133 957 q 132 1006 126 985 q 160 1032 138 1026 q 169 1037 165 1035 q 176 1042 172 1039 q 213 1051 194 1049 q 249 1057 231 1054 q 301 1060 275 1060 q 353 1061 326 1061 q 416 1059 385 1060 q 479 1057 447 1058 q 500 1058 490 1057 q 519 1054 510 1058 q 551 1034 538 1047 q 572 1005 565 1021 q 576 972 578 989 q 560 942 574 956 q 540 926 550 933 q 517 915 529 918 q 495 913 506 913 q 474 915 485 914 q 439 919 465 917 q 382 924 413 921 q 325 928 351 926 q 290 931 299 931 q 272 934 288 932 q 253 936 257 936 q 255 867 257 917 q 249 761 253 817 q 240 656 244 706 q 233 586 235 607 q 326 606 279 597 q 419 617 372 615 q 465 617 442 618 q 504 600 489 615 q 519 569 519 589 q 506 536 519 550 q 469 522 489 522 q 444 522 457 519 q 419 522 432 524 q 322 510 371 519 q 225 490 274 501 q 217 353 219 421 q 222 217 214 285 q 231 181 225 199 q 246 149 236 164 q 265 141 251 140 q 289 144 278 142 q 349 163 322 151 q 392 181 367 169 q 445 200 418 192 q 497 211 472 208 q 538 203 522 214 q 556 168 556 190 q 540 131 556 146 q 506 104 525 115 q 468 82 488 93 q 389 35 429 58 q 304 -1 349 13 z "},"F":{"ha":694,"x_min":18,"x_max":703,"o":"m 257 6 q 226 -35 250 -18 q 176 -54 201 -53 q 138 -47 156 -56 q 109 -24 121 -39 q 91 10 97 -10 q 85 50 85 29 q 86 89 85 61 q 90 153 88 117 q 94 229 92 189 q 97 306 96 269 q 100 369 99 342 q 103 408 101 397 q 103 431 103 414 q 105 466 104 447 q 106 501 106 485 q 107 524 107 518 q 67 524 88 522 q 33 542 46 526 q 22 581 18 557 q 44 614 25 604 q 76 622 60 621 q 110 624 93 624 q 109 758 110 692 q 101 892 108 825 q 101 899 101 896 q 100 907 100 903 q 90 908 94 907 q 82 911 86 910 q 56 926 65 914 q 46 951 47 938 q 52 978 44 965 q 76 997 60 992 q 103 1001 85 1000 q 144 1001 122 1001 q 184 999 165 1000 q 211 999 203 999 q 342 1006 278 999 q 469 1019 406 1013 q 510 1024 483 1021 q 567 1030 538 1028 q 624 1031 597 1032 q 663 1025 650 1031 q 684 1012 674 1019 q 699 993 694 1004 q 701 969 703 981 q 694 947 700 957 q 677 933 688 938 q 654 929 667 928 q 623 931 639 932 q 592 928 607 931 q 401 905 496 917 q 210 897 306 893 q 219 872 215 885 q 228 844 224 858 q 246 738 240 792 q 256 632 251 685 q 313 636 269 633 q 403 642 356 639 q 494 647 451 644 q 553 649 538 649 q 585 637 572 649 q 600 610 597 625 q 597 579 603 594 q 572 557 590 564 q 557 551 564 551 q 409 540 482 546 q 261 531 336 535 q 262 504 261 524 q 263 463 263 485 q 265 420 264 440 q 265 394 265 400 q 266 348 265 379 q 267 278 267 317 q 268 199 268 240 q 267 119 268 157 q 264 51 267 81 q 257 6 261 21 z "},"G":{"ha":775,"x_min":21,"x_max":747,"o":"m 600 19 q 485 -39 547 -21 q 356 -51 422 -57 q 235 -9 293 -44 q 136 76 176 26 q 74 192 96 129 q 39 321 51 256 q 31 511 21 414 q 72 700 42 608 q 122 813 92 758 q 192 913 151 867 q 274 981 226 953 q 372 1018 321 1008 q 505 1013 439 1031 q 622 951 571 994 q 672 893 650 928 q 697 821 694 858 l 697 756 q 696 733 697 744 q 688 714 694 722 q 651 696 674 694 q 618 718 628 697 q 611 740 613 728 q 610 764 610 751 q 610 788 610 776 q 606 811 610 800 q 601 822 603 817 q 597 829 600 826 q 574 849 590 839 q 538 869 557 860 q 501 884 519 878 q 469 892 482 890 q 442 894 456 893 q 415 892 429 894 q 371 874 392 886 q 331 846 350 861 q 284 794 304 822 q 247 733 264 765 q 206 622 219 681 q 186 503 192 563 q 189 390 182 451 q 216 272 196 328 q 270 171 236 215 q 353 110 304 126 q 443 100 400 92 q 497 117 471 106 q 544 146 522 128 q 586 193 568 164 q 609 247 601 218 q 621 306 617 276 q 627 368 625 338 q 626 431 629 399 q 606 431 621 431 q 574 431 590 431 q 541 430 557 431 q 519 429 525 429 q 502 427 515 429 q 474 424 489 425 q 447 422 460 422 q 429 421 435 421 q 381 450 401 425 q 374 499 363 472 q 411 539 385 526 q 428 542 419 542 q 446 544 436 543 q 474 546 453 546 q 517 545 494 546 q 561 543 540 544 q 589 542 582 542 q 636 542 613 540 q 682 536 660 543 q 719 509 704 529 q 739 465 733 489 q 747 401 746 433 q 744 336 747 368 q 722 203 742 269 q 664 83 701 138 q 635 49 651 64 q 600 19 618 33 z "},"H":{"ha":804,"x_min":4,"x_max":756,"o":"m 696 -81 q 673 -87 685 -86 q 650 -86 661 -87 q 620 -77 635 -85 q 594 -58 606 -69 q 586 -47 590 -54 q 578 -29 582 -39 q 570 -11 574 -19 q 567 3 567 -3 q 555 210 556 107 q 561 417 554 313 q 403 412 482 414 q 246 410 325 410 q 249 328 247 369 q 258 247 251 288 q 257 213 261 231 q 246 179 253 194 q 244 168 244 176 q 234 145 240 157 q 218 126 228 133 q 163 115 193 107 q 118 150 133 122 q 102 178 111 165 q 86 206 93 190 q 82 226 83 211 q 79 258 81 242 q 78 290 78 275 q 78 311 78 304 q 78 414 76 363 q 62 417 69 415 q 46 421 54 419 q 18 436 31 421 q 15 478 4 457 q 51 500 26 499 q 67 503 54 500 q 82 507 79 506 q 86 572 83 525 q 93 672 89 619 q 102 770 97 724 q 113 835 107 817 q 125 867 118 850 q 144 894 132 883 q 178 903 160 907 q 206 881 197 899 q 212 870 208 875 q 218 858 215 865 q 224 833 221 846 q 228 808 226 821 q 239 660 238 733 q 243 511 240 586 q 406 514 325 513 q 569 517 488 515 q 576 587 572 553 q 583 657 579 621 q 589 708 585 669 q 598 792 593 747 q 607 875 603 836 q 611 926 611 914 q 615 949 613 938 q 625 968 618 960 q 660 992 639 986 q 699 992 681 997 q 731 970 718 986 q 744 932 744 954 q 745 825 744 879 q 744 718 746 771 q 737 529 742 622 q 733 340 732 436 q 741 181 735 260 q 754 21 747 101 q 751 -9 756 6 q 740 -39 747 -24 q 722 -63 733 -53 q 696 -81 710 -74 z "},"I":{"ha":299,"x_min":53,"x_max":250,"o":"m 239 -1 q 200 -56 229 -39 q 140 -71 171 -74 q 83 -47 108 -68 q 54 15 57 -25 q 53 67 53 31 q 54 151 53 104 q 57 251 56 199 q 60 351 58 304 q 63 435 61 399 q 64 489 64 472 q 64 540 64 504 q 64 619 64 575 q 63 713 64 664 q 63 806 63 761 q 66 885 64 850 q 71 935 68 919 q 108 972 78 965 q 161 958 138 979 q 188 913 176 944 q 210 844 200 881 q 225 772 219 807 q 233 715 231 736 q 250 408 250 563 q 247 228 250 318 q 243 49 243 139 q 242 24 242 36 q 239 -1 242 11 z "},"J":{"ha":669,"x_min":4,"x_max":646,"o":"m 413 31 q 333 -2 376 7 q 246 -6 289 -11 q 103 57 168 7 q 11 203 33 113 q 6 242 7 222 q 8 282 4 263 q 33 353 17 318 q 75 417 50 389 q 99 431 85 428 q 125 428 113 433 q 147 411 138 422 q 157 385 156 400 q 156 370 158 381 q 151 347 154 360 q 144 324 147 335 q 142 310 142 314 q 158 233 135 271 q 218 182 182 194 q 253 174 235 176 q 289 178 272 171 q 333 201 313 186 q 369 233 353 215 q 447 381 424 296 q 473 534 468 456 q 467 690 478 613 q 454 757 461 724 q 435 822 447 790 q 428 839 433 826 q 416 865 422 851 q 405 890 410 878 q 399 907 400 903 q 408 963 390 938 q 458 989 426 988 q 486 983 475 989 q 518 954 506 972 q 542 917 531 936 q 620 715 594 822 q 640 501 646 608 q 616 339 638 419 q 554 188 594 258 q 493 99 529 140 q 413 31 457 58 z "},"K":{"ha":704,"x_min":15,"x_max":699,"o":"m 232 10 q 191 -20 219 -17 q 143 -3 163 -24 q 127 13 136 6 q 111 32 118 21 q 103 52 107 42 q 99 74 99 63 q 98 236 96 156 q 100 399 100 317 q 66 415 83 407 q 35 438 49 424 q 17 474 19 453 q 26 513 15 494 q 60 542 39 532 q 101 564 82 553 q 101 631 101 581 q 99 737 100 681 q 97 843 99 793 q 94 910 96 893 q 90 945 93 928 q 94 978 88 963 q 125 1003 103 997 q 164 994 147 1008 q 181 971 171 989 q 193 944 190 953 q 225 798 217 874 q 240 647 233 722 q 519 882 394 749 q 537 902 525 888 q 562 933 549 917 q 586 965 575 950 q 600 986 597 979 q 620 1008 607 1001 q 647 1012 633 1014 q 672 999 661 1010 q 683 972 682 989 q 675 937 685 958 q 651 893 665 915 q 622 851 636 871 q 597 821 607 832 q 435 653 524 729 q 249 514 347 576 q 251 476 250 494 q 253 438 251 457 q 450 347 351 390 q 643 250 549 303 q 656 244 650 247 q 669 238 663 242 q 693 206 688 225 q 694 169 699 188 q 675 138 689 151 q 639 121 661 124 q 592 132 613 117 q 556 158 581 142 q 498 192 531 174 q 428 229 465 210 q 358 267 392 249 q 297 298 324 285 q 257 318 269 311 q 260 208 260 263 q 263 96 261 153 q 261 67 263 82 q 253 40 260 53 q 243 25 251 38 q 232 10 235 13 z "},"L":{"ha":536,"x_min":39,"x_max":549,"o":"m 238 -3 q 206 -17 222 -10 q 172 -24 189 -25 q 141 -20 157 -24 q 113 -7 125 -17 q 72 47 83 13 q 53 133 57 89 q 47 219 50 176 q 47 453 39 338 q 72 685 54 569 q 81 740 74 700 q 95 824 88 779 q 111 907 103 868 q 125 961 119 946 q 138 988 131 975 q 157 1008 146 1000 q 213 1012 185 1025 q 251 967 242 999 q 266 864 267 917 q 261 758 265 811 q 246 554 254 656 q 236 350 238 453 q 240 233 236 292 q 251 115 244 174 q 324 127 289 118 q 396 143 360 136 q 444 156 419 150 q 492 167 468 163 q 526 160 513 169 q 544 135 539 150 q 542 104 549 119 q 517 82 536 89 q 475 69 506 78 q 409 49 444 60 q 342 31 374 39 q 299 19 310 22 q 287 15 296 18 q 268 9 278 13 q 249 2 258 6 q 238 -3 240 -1 z "},"M":{"ha":1268,"x_min":54,"x_max":1218,"o":"m 1189 0 q 1128 -17 1163 -22 q 1076 17 1094 -12 q 1066 43 1072 24 q 1060 71 1060 63 q 1068 360 1061 217 q 1082 649 1075 503 q 1083 678 1082 657 q 1085 722 1085 699 q 1085 767 1085 746 q 1083 796 1085 788 q 1080 815 1082 804 q 1074 837 1078 826 q 1065 856 1069 847 q 1051 867 1060 864 q 1033 865 1044 868 q 1010 858 1022 863 q 988 846 999 853 q 972 835 978 839 q 929 794 949 817 q 892 749 910 772 q 856 694 872 722 q 829 636 840 667 q 763 381 783 511 q 728 119 743 251 q 727 106 728 115 q 724 87 726 97 q 720 68 722 76 q 717 56 718 60 q 682 35 706 35 q 644 14 665 18 q 603 16 622 10 q 567 38 583 22 q 547 78 551 54 q 546 102 546 85 q 547 138 546 119 q 548 174 547 157 q 549 197 549 190 q 548 277 549 238 q 547 357 547 317 q 548 548 547 453 q 546 739 549 643 q 541 801 544 771 q 528 861 538 832 q 522 874 526 864 q 515 886 518 883 q 496 894 507 893 q 475 893 485 896 q 435 872 453 886 q 401 840 417 858 q 375 804 386 824 q 353 765 364 785 q 291 611 315 690 q 251 450 267 532 q 231 319 240 383 q 218 189 222 256 q 219 171 218 185 q 222 141 219 157 q 224 111 224 125 q 225 93 225 97 q 226 88 225 90 q 228 83 228 86 q 215 15 238 44 q 153 -12 193 -15 q 121 1 138 -11 q 94 33 104 13 q 86 72 85 53 q 79 100 81 86 q 75 129 78 114 q 55 369 56 249 q 57 610 54 489 q 58 649 57 621 q 60 715 58 678 q 63 792 61 751 q 65 869 64 832 q 67 934 67 906 q 69 974 68 963 q 71 979 69 975 q 72 986 72 983 q 92 1015 78 1004 q 122 1027 106 1025 q 154 1023 138 1029 q 182 1001 171 1017 q 191 985 188 994 q 193 965 194 975 q 192 769 190 867 q 196 572 194 672 q 251 736 218 656 q 335 888 283 817 q 370 927 350 910 q 414 960 390 944 q 470 982 439 975 q 529 982 501 989 q 581 954 557 975 q 619 908 604 933 q 646 841 638 876 q 661 769 654 806 q 667 733 664 758 q 672 674 669 707 q 678 603 675 640 q 683 533 681 567 q 688 474 686 500 q 690 436 689 447 q 719 559 703 499 q 760 678 735 619 q 878 856 801 776 q 925 899 900 879 q 978 935 950 919 q 1008 947 993 942 q 1039 954 1024 953 q 1078 952 1058 956 q 1113 939 1097 949 q 1165 885 1144 921 q 1188 828 1181 858 q 1200 768 1196 799 q 1206 690 1203 744 q 1210 567 1208 636 q 1214 422 1213 499 q 1216 276 1215 346 q 1217 153 1217 207 q 1218 75 1218 99 q 1211 35 1218 56 q 1189 0 1204 14 z "},"N":{"ha":871,"x_min":47,"x_max":839,"o":"m 242 51 q 222 10 238 26 q 187 -12 207 -7 q 146 -12 167 -18 q 110 15 125 -6 q 88 70 97 32 q 73 151 79 108 q 63 235 67 194 q 58 296 60 275 q 51 426 54 361 q 47 556 47 490 q 52 690 47 624 q 67 824 57 757 q 74 874 69 849 q 85 924 78 900 q 110 961 92 947 q 151 965 129 975 q 156 965 154 964 q 161 964 158 965 q 189 951 176 961 q 207 926 201 940 q 211 908 211 918 q 210 888 211 899 q 194 758 199 822 q 189 626 190 693 q 222 700 204 664 q 263 768 239 736 q 317 837 288 804 q 382 893 346 869 q 430 922 406 908 q 482 942 454 935 q 539 952 510 949 q 596 949 568 956 q 654 925 626 940 q 731 855 700 900 q 783 763 761 810 q 827 607 815 688 q 836 446 839 526 q 818 269 833 357 q 779 97 803 182 q 774 76 778 92 q 767 57 769 61 q 736 21 754 33 q 711 8 725 14 q 683 6 697 3 q 663 10 674 8 q 646 19 653 13 q 619 48 631 31 q 607 85 607 65 q 615 142 606 114 q 629 200 624 171 q 650 314 640 257 q 661 429 660 371 q 662 472 661 450 q 660 514 663 493 q 651 593 657 554 q 633 671 644 632 q 624 690 631 678 q 610 716 618 703 q 595 741 603 729 q 583 757 588 753 q 538 781 564 776 q 488 776 513 786 q 439 748 461 765 q 399 710 417 731 q 301 560 339 643 q 247 390 264 478 q 233 244 233 318 q 235 97 232 171 q 240 74 235 85 q 242 51 244 63 z "},"O":{"ha":958,"x_min":17,"x_max":943,"o":"m 492 0 q 349 9 421 -7 q 214 61 276 25 q 108 149 151 99 q 69 211 85 176 q 43 282 53 246 q 25 472 17 374 q 68 660 33 571 q 77 681 69 665 q 94 714 85 697 q 110 746 103 731 q 122 767 118 761 q 241 893 171 842 q 397 967 311 944 q 526 978 460 982 q 656 956 593 975 q 722 930 689 944 q 783 894 756 915 q 834 853 810 875 q 878 804 858 831 q 899 772 889 789 q 914 736 908 756 q 917 724 915 733 q 922 703 919 714 q 926 683 924 693 q 928 671 928 674 q 932 509 943 592 q 894 349 921 426 q 835 224 871 285 q 750 118 800 164 q 630 38 697 69 q 492 0 563 7 m 208 289 q 246 231 218 257 q 310 188 274 206 q 385 160 346 169 q 458 151 425 151 q 498 155 478 151 q 538 165 518 158 q 628 208 586 178 q 703 276 671 239 q 751 357 733 313 q 781 447 769 401 q 794 544 792 494 q 785 642 796 594 q 776 662 783 650 q 759 685 768 674 q 740 708 750 697 q 724 722 731 718 q 657 759 692 743 q 586 785 622 775 q 524 799 556 793 q 461 800 493 804 q 374 774 417 794 q 297 724 331 754 q 285 713 293 721 q 269 694 278 704 q 253 676 261 685 q 244 664 246 668 q 210 585 225 625 q 189 503 196 544 q 185 434 183 468 q 190 365 186 400 q 198 327 193 346 q 208 289 203 308 z "},"P":{"ha":718,"x_min":38,"x_max":708,"o":"m 151 -32 q 123 -36 138 -37 q 96 -31 108 -35 q 56 3 71 -24 q 38 54 40 29 q 38 77 38 60 q 39 115 38 94 q 42 152 40 135 q 43 176 43 169 q 59 363 51 269 q 74 550 67 456 q 78 606 75 564 q 85 694 82 647 q 90 782 88 740 q 92 839 93 824 q 91 867 90 846 q 90 896 92 889 q 92 920 88 908 q 106 939 96 932 q 127 947 115 946 q 151 942 139 949 q 195 899 179 928 q 219 842 211 871 q 305 933 257 890 q 411 994 353 975 q 458 1003 435 1001 q 506 997 482 1004 q 608 941 561 982 q 678 849 654 900 q 703 760 697 807 q 701 668 708 713 q 642 499 686 581 q 532 360 599 418 q 474 312 504 335 q 408 274 443 289 q 322 244 367 256 q 232 235 276 232 q 228 190 231 221 q 224 126 226 160 q 217 64 221 93 q 207 22 213 35 q 151 -32 190 -14 m 240 382 q 279 384 260 381 q 318 393 299 388 q 397 429 360 406 q 464 482 433 453 q 531 562 501 518 q 575 654 560 606 q 587 701 582 678 q 590 747 592 724 q 574 808 588 779 q 538 860 560 838 q 507 884 524 874 q 472 896 490 894 q 427 886 449 897 q 386 861 406 875 q 310 798 346 833 q 256 718 275 763 q 247 697 253 713 q 240 675 240 682 q 243 528 243 601 q 240 382 243 456 z "},"Q":{"ha":826,"x_min":22,"x_max":807,"o":"m 806 15 q 791 -19 807 -6 q 753 -31 775 -33 q 713 -15 738 -29 q 660 18 688 0 q 610 53 633 36 q 575 81 586 71 q 461 15 526 39 q 332 3 396 -8 q 219 47 272 13 q 129 131 165 82 q 51 267 81 192 q 22 421 22 343 q 45 590 22 507 q 104 751 68 674 q 160 847 128 801 q 235 928 193 892 q 304 975 267 956 q 383 1003 342 994 q 411 1006 397 1006 q 439 1003 425 1007 q 483 1013 461 1010 q 528 1014 506 1017 q 610 983 569 1010 q 646 951 629 969 q 676 914 663 933 q 701 872 690 894 q 721 828 711 850 q 772 663 757 750 q 774 493 786 576 q 727 315 761 401 q 639 153 693 228 q 729 85 683 113 q 738 79 731 83 q 753 70 746 75 q 768 61 761 65 q 778 56 775 57 q 797 38 789 49 q 806 15 804 28 m 374 499 q 457 358 410 425 q 558 231 504 292 q 593 283 578 256 q 622 339 608 311 q 651 410 639 375 q 671 485 664 446 q 675 535 675 510 q 672 586 675 560 q 659 674 669 631 q 629 757 649 717 q 606 797 621 775 q 574 838 592 819 q 537 869 557 857 q 497 879 517 881 q 467 875 482 878 q 439 865 453 872 q 402 847 419 857 q 372 819 385 836 q 350 782 358 803 q 336 740 342 761 q 326 698 329 719 q 325 656 322 676 q 342 574 328 614 q 374 499 356 535 m 382 142 q 433 146 407 139 q 482 164 458 153 q 360 295 417 226 q 264 443 304 364 q 214 565 233 500 q 199 467 203 517 q 203 369 194 418 q 233 278 213 322 q 286 199 253 233 q 330 162 306 179 q 382 142 354 144 z "},"R":{"ha":797,"x_min":50,"x_max":778,"o":"m 188 -33 q 160 -45 175 -40 q 129 -47 144 -50 q 101 -38 115 -44 q 76 -21 86 -32 q 64 -3 69 -12 q 56 18 58 7 q 54 88 50 53 q 60 157 58 122 q 66 459 67 308 q 63 761 65 610 q 62 787 63 767 q 60 828 61 807 q 58 869 60 850 q 57 896 57 889 q 56 924 57 910 q 63 951 56 939 q 101 974 75 972 q 142 956 126 976 q 174 891 161 925 q 193 821 186 857 q 206 742 201 781 q 215 663 211 703 q 330 799 261 738 q 482 894 399 860 q 538 912 508 906 q 594 915 567 918 q 688 879 647 911 q 715 853 703 868 q 739 821 728 838 q 769 736 761 782 q 774 646 778 690 q 731 520 765 581 q 649 415 697 460 q 528 334 593 368 q 393 281 464 300 q 546 197 471 240 q 703 122 621 154 q 719 116 711 119 q 733 106 726 113 q 757 60 751 89 q 750 13 763 32 q 731 -11 743 0 q 704 -25 719 -22 q 685 -28 694 -28 q 664 -26 675 -29 q 630 -15 647 -21 q 597 0 613 -8 q 461 79 526 38 q 331 165 396 121 q 282 204 306 183 q 235 244 258 225 q 233 145 235 194 q 228 46 231 96 q 217 0 228 22 q 188 -33 207 -22 m 231 408 q 333 416 282 404 q 432 449 385 428 q 508 486 471 465 q 578 535 546 507 q 639 610 614 567 q 667 700 664 653 q 659 756 668 728 q 629 803 650 785 q 557 821 599 829 q 488 796 521 814 q 425 756 454 778 q 369 710 396 735 q 319 656 343 685 q 266 573 289 617 q 228 482 243 529 q 230 446 229 464 q 231 408 231 428 z "},"S":{"ha":725,"x_min":-1,"x_max":708,"o":"m 515 43 q 326 -19 426 -3 q 125 -32 225 -36 q 88 -29 106 -32 q 54 -18 69 -26 q 10 28 21 -1 q 6 87 -1 58 q 36 137 13 115 q 97 158 60 158 q 113 158 100 158 q 128 157 125 157 q 250 160 189 153 q 369 186 311 167 q 437 216 404 199 q 493 261 469 233 q 508 282 501 271 q 517 306 515 293 q 514 335 519 321 q 499 363 508 350 q 462 401 483 385 q 417 431 440 417 q 325 480 372 458 q 233 529 278 501 q 165 587 197 553 q 114 661 133 621 q 94 719 100 689 q 90 781 88 750 q 120 881 94 833 q 183 965 146 929 q 221 996 201 982 q 263 1021 240 1010 q 388 1055 321 1049 q 515 1042 454 1061 q 558 1025 538 1035 q 596 1000 579 1015 q 628 964 614 985 q 647 919 642 943 q 652 892 650 906 q 651 864 654 878 q 623 833 646 840 q 581 840 600 825 q 570 850 574 844 q 563 861 567 856 q 533 881 551 876 q 494 890 514 886 q 419 891 458 897 q 344 867 379 885 q 297 830 318 854 q 271 776 276 806 q 278 736 268 753 q 336 669 297 696 q 432 613 382 638 q 531 560 482 589 q 594 514 564 539 q 650 457 625 489 q 694 378 679 422 q 706 289 708 335 q 692 224 704 256 q 660 164 679 192 q 515 43 600 88 z "},"T":{"ha":657,"x_min":-10,"x_max":668,"o":"m 344 -4 q 288 -7 317 -18 q 262 8 274 -3 q 242 31 250 18 q 228 59 233 44 q 225 88 224 74 q 247 303 236 196 q 260 518 257 410 q 262 576 260 533 q 267 669 264 619 q 272 761 269 718 q 276 819 274 804 q 199 819 238 818 q 121 825 160 819 q 83 831 101 828 q 49 842 65 835 q 27 852 38 847 q 8 865 17 857 q -6 888 -1 875 q -8 912 -10 900 q 1 933 -7 924 q 22 944 8 942 q 66 950 33 947 q 136 956 99 953 q 206 962 174 960 q 250 965 239 964 q 399 985 325 975 q 549 1006 474 994 q 572 1009 560 1008 q 596 1004 585 1010 q 628 991 611 999 q 654 968 644 983 q 665 943 661 957 q 665 917 668 929 q 658 891 663 904 q 642 869 653 878 q 618 853 631 861 q 590 842 606 844 q 553 838 581 840 q 493 832 525 835 q 433 827 461 829 q 396 825 406 825 q 410 691 407 758 q 415 556 413 624 q 412 316 421 435 q 400 75 403 197 q 383 29 400 51 q 344 -4 367 7 z "},"U":{"ha":726,"x_min":32,"x_max":689,"o":"m 408 -3 q 313 -1 361 -11 q 222 33 264 10 q 184 58 203 44 q 150 88 165 71 q 97 176 118 128 q 65 272 76 224 q 49 350 56 311 q 39 428 42 389 q 44 622 32 525 q 75 815 56 719 q 85 869 81 842 q 94 924 89 896 q 108 953 97 940 q 134 974 119 967 q 166 981 149 981 q 199 974 183 982 q 224 952 213 965 q 239 924 236 939 q 240 881 243 903 q 233 836 236 858 q 219 695 226 765 q 214 554 213 625 q 229 381 215 467 q 276 214 243 294 q 283 197 278 208 q 295 172 289 185 q 308 147 301 158 q 318 131 314 135 q 339 115 322 125 q 361 101 356 104 q 386 96 372 94 q 415 102 400 97 q 442 116 429 107 q 465 133 456 125 q 538 244 514 179 q 574 395 564 318 q 588 551 585 472 q 588 735 592 643 q 581 918 583 826 q 586 960 578 942 q 618 987 596 981 q 660 979 640 993 q 677 957 671 971 q 683 928 683 943 q 687 757 689 842 q 682 588 685 672 q 665 397 678 492 q 621 213 653 301 q 574 119 604 164 q 504 43 544 75 q 459 15 483 28 q 408 -3 435 3 z "},"V":{"ha":638,"x_min":-3,"x_max":639,"o":"m 356 0 q 338 -2 351 0 q 322 -4 325 -4 q 271 15 296 -6 q 239 60 246 35 q 228 122 232 92 q 219 185 225 153 q 167 442 199 315 q 93 694 136 569 q 50 809 72 753 q 7 924 28 865 q 0 948 3 935 q 0 974 -3 961 q 24 1012 4 997 q 67 1022 43 1026 q 92 1010 81 1019 q 113 989 104 1000 q 169 894 144 944 q 215 794 193 844 q 309 544 271 672 q 375 285 347 415 q 438 578 404 432 q 507 871 471 724 q 519 916 513 893 q 538 958 525 939 q 575 983 551 979 q 618 971 599 986 q 634 945 629 963 q 635 915 639 928 q 628 898 633 911 q 616 870 622 885 q 604 842 610 856 q 597 825 599 829 q 553 680 572 753 q 515 533 533 607 q 504 483 513 519 q 485 399 496 446 q 464 299 475 351 q 442 199 453 246 q 424 115 432 151 q 413 65 415 79 q 402 39 410 51 q 386 15 394 26 q 372 3 381 8 q 356 0 364 -1 z "},"W":{"ha":1118,"x_min":42,"x_max":1069,"o":"m 926 -35 q 874 -35 901 -42 q 825 -12 847 -28 q 804 7 814 -4 q 783 29 794 18 q 712 126 743 74 q 653 235 681 179 q 585 394 615 314 q 525 558 554 475 q 465 376 496 467 q 394 196 435 285 q 357 114 376 156 q 310 36 338 72 q 239 -21 281 -4 q 192 -27 215 -29 q 149 -13 169 -25 q 111 17 128 -1 q 85 57 94 35 q 67 115 72 85 q 57 178 61 146 q 47 290 50 235 q 43 404 44 346 q 45 519 42 463 q 57 635 49 576 q 88 790 69 714 q 125 942 107 865 q 131 969 128 956 q 142 993 135 982 q 176 1019 156 1013 q 216 1022 196 1026 q 251 1002 236 1017 q 268 964 265 988 q 268 944 269 954 q 264 925 267 935 q 238 760 249 842 q 221 594 226 678 q 221 474 218 533 q 226 353 224 414 q 233 275 229 314 q 242 197 236 236 q 295 297 272 246 q 342 399 318 347 q 363 449 347 411 q 395 529 378 486 q 428 610 413 572 q 449 660 443 647 q 454 674 450 664 q 463 694 458 683 q 472 715 468 706 q 479 728 476 724 q 488 739 483 733 q 497 749 492 744 q 517 758 506 756 q 539 758 528 761 q 543 758 542 757 q 547 758 544 758 q 593 746 572 761 q 611 728 604 739 q 622 706 618 717 q 690 540 654 622 q 763 376 725 458 q 842 228 799 297 q 878 173 860 200 q 918 122 896 146 q 947 215 939 167 q 958 311 954 263 q 975 640 976 475 q 965 969 974 804 q 980 1011 964 996 q 1015 1028 996 1026 q 1051 1017 1035 1029 q 1069 978 1068 1004 q 1069 960 1069 974 q 1067 933 1068 947 q 1065 907 1067 919 q 1064 890 1064 894 q 1063 817 1064 872 q 1063 697 1063 761 q 1063 578 1063 633 q 1063 504 1063 522 q 1054 341 1060 422 q 1038 178 1049 260 q 1032 142 1036 165 q 1022 94 1028 119 q 1008 47 1015 69 q 993 15 1001 25 q 982 2 986 8 q 971 -10 978 -4 q 950 -25 961 -18 q 926 -35 939 -32 z "},"X":{"ha":722,"x_min":8,"x_max":726,"o":"m 653 14 q 599 -22 633 -12 q 538 -12 565 -31 q 481 38 506 7 q 436 101 457 69 q 358 235 396 168 q 283 371 319 301 q 223 274 253 322 q 165 176 193 226 q 124 94 143 136 q 92 8 104 53 q 65 -18 86 -12 q 28 -10 44 -24 q 18 3 21 -4 q 13 18 15 11 q 10 42 8 29 q 15 67 13 56 q 48 161 28 115 q 92 251 68 207 q 157 368 122 311 q 228 482 192 425 q 169 613 196 547 q 118 747 142 679 q 92 828 104 788 q 67 910 81 869 q 58 933 63 921 q 54 956 54 944 q 71 1006 54 985 q 104 1030 85 1024 q 143 1032 124 1036 q 178 1015 163 1028 q 203 981 194 1001 q 218 945 207 971 q 243 887 229 919 q 273 818 257 854 q 303 749 289 782 q 329 691 318 717 q 346 656 340 665 q 376 695 354 668 q 424 757 397 722 q 482 831 451 792 q 540 904 513 869 q 590 965 568 939 q 622 1003 611 992 q 658 1019 636 1017 q 697 1013 681 1021 q 722 976 718 1000 q 714 931 726 951 q 703 915 711 926 q 685 893 694 904 q 666 872 675 882 q 653 858 657 863 q 403 546 521 708 q 428 501 410 532 q 469 429 446 469 q 519 344 493 389 q 568 258 544 299 q 610 187 592 218 q 639 143 629 156 q 656 117 647 131 q 669 89 665 104 q 669 49 674 69 q 653 14 665 29 z "},"Y":{"ha":715,"x_min":-3,"x_max":717,"o":"m 336 -31 q 313 -44 325 -37 q 286 -51 300 -50 q 251 -45 268 -53 q 222 -24 233 -37 q 208 1 217 -18 q 197 28 200 19 q 194 51 194 39 q 196 75 193 64 q 211 126 199 89 q 238 203 224 163 q 267 281 253 244 q 286 331 281 317 q 258 362 271 346 q 235 396 246 378 q 149 549 188 471 q 67 703 110 626 q 46 741 58 717 q 22 792 33 765 q 4 843 11 818 q 1 883 -3 868 q 47 936 13 921 q 114 932 81 951 q 135 912 126 925 q 149 885 143 899 q 176 828 161 857 q 204 772 190 800 q 219 739 208 763 q 244 684 229 715 q 274 618 258 653 q 303 553 289 583 q 328 499 318 522 q 343 465 339 475 q 437 666 389 567 q 543 861 485 765 q 557 883 547 868 q 578 915 567 899 q 601 945 590 931 q 618 964 611 960 q 629 972 624 968 q 642 979 635 976 q 653 983 651 982 q 692 983 672 994 q 713 949 713 972 q 715 937 713 942 q 717 925 717 932 q 715 911 715 918 q 713 897 715 904 q 660 775 689 835 q 606 653 632 715 q 498 387 550 519 q 403 115 446 254 q 390 67 396 92 q 375 18 383 42 q 358 -7 372 10 q 336 -31 343 -24 z "},"Z":{"ha":683,"x_min":-3,"x_max":681,"o":"m 131 -26 q 102 -34 117 -32 q 74 -33 88 -36 q 15 12 33 -25 q 13 86 -3 49 q 26 109 15 93 q 50 143 38 125 q 74 176 63 161 q 90 199 86 192 q 117 242 97 211 q 164 312 138 272 q 220 395 190 351 q 276 478 250 439 q 324 548 303 518 q 353 590 344 578 q 438 718 396 654 q 517 849 481 782 q 373 839 444 846 q 231 815 301 832 q 200 807 221 813 q 157 796 179 801 q 114 788 135 790 q 83 788 93 785 q 49 813 60 794 q 46 854 38 832 q 59 874 50 865 q 79 892 68 883 q 114 912 96 903 q 151 929 132 921 q 342 988 243 969 q 539 1003 440 1006 q 625 983 583 1003 q 667 931 654 968 q 672 864 681 894 q 655 819 665 840 q 633 778 644 797 q 614 747 629 769 q 581 700 599 725 q 547 653 563 675 q 526 622 532 631 q 506 592 521 615 q 474 544 492 569 q 442 497 457 519 q 422 467 428 474 q 314 288 367 378 q 213 104 261 197 q 356 120 283 115 q 500 125 428 125 q 519 125 506 125 q 548 125 533 125 q 575 124 563 125 q 593 121 588 124 q 619 99 610 113 q 629 71 628 86 q 624 41 631 56 q 600 18 617 26 q 563 10 583 10 q 524 11 543 11 q 415 9 469 10 q 307 3 361 8 q 276 -1 299 1 q 226 -7 253 -4 q 176 -13 199 -10 q 144 -18 153 -17 q 138 -22 142 -18 q 131 -26 133 -25 z "},"[":{"ha":538,"x_min":51,"x_max":586,"o":"m 460 -46 q 412 -54 447 -49 q 335 -66 376 -60 q 259 -78 294 -72 q 211 -85 224 -83 q 165 -81 188 -87 q 152 -76 161 -79 q 134 -68 143 -72 q 117 -59 125 -64 q 106 -51 110 -54 q 94 -40 100 -46 q 85 -28 89 -35 q 64 30 68 -1 q 58 93 60 61 q 59 410 51 253 q 81 726 67 568 q 85 775 82 739 q 94 852 89 811 q 103 929 99 893 q 110 978 107 965 q 122 1040 115 1008 q 146 1094 128 1071 q 183 1126 160 1114 q 229 1143 206 1139 q 318 1147 274 1150 q 406 1135 363 1143 q 476 1121 442 1128 q 544 1101 511 1114 q 568 1084 558 1096 q 582 1057 578 1072 q 583 1026 586 1042 q 571 1000 581 1011 q 548 981 561 989 q 521 974 535 972 q 497 976 508 974 q 474 982 485 979 q 405 997 439 989 q 335 1010 371 1006 q 300 1014 317 1013 q 265 1014 283 1015 q 258 974 261 1003 q 251 914 254 946 q 245 853 247 882 q 243 813 243 825 q 240 717 242 764 q 238 621 238 669 q 238 558 238 601 q 238 461 238 515 q 240 347 239 407 q 242 232 240 286 q 247 135 244 178 q 251 74 249 93 q 289 79 261 75 q 348 88 317 83 q 407 97 379 93 q 444 103 435 101 q 476 100 456 106 q 506 88 497 94 q 523 70 515 81 q 533 49 531 60 q 535 25 536 38 q 528 1 535 13 q 460 -46 504 -39 z "},"\\":{"ha":442,"x_min":-32,"x_max":488,"o":"m 469 -151 q 422 -186 451 -178 q 363 -181 392 -194 q 333 -157 346 -172 q 311 -124 319 -142 q 291 -65 304 -108 q 264 26 278 -22 q 238 118 250 75 q 221 176 225 161 q 125 533 169 353 q 24 889 81 713 q 13 921 21 897 q -5 970 4 944 q -22 1019 -14 996 q -31 1051 -29 1043 q -25 1078 -32 1067 q -6 1097 -18 1090 q 19 1103 6 1103 q 46 1093 33 1103 q 51 1090 51 1090 q 69 1075 63 1086 q 75 1053 75 1064 q 130 942 106 999 q 176 826 154 885 q 188 799 179 819 q 204 755 196 778 q 220 711 213 732 q 231 683 228 690 q 356 310 293 496 q 481 -64 418 124 q 485 -110 488 -86 q 469 -151 482 -135 z "},"]":{"ha":560,"x_min":-28,"x_max":510,"o":"m 360 -72 q 274 -86 319 -87 q 185 -78 228 -85 q 100 -62 142 -71 q 18 -39 58 -54 q -19 5 -11 -28 q -8 61 -28 38 q 13 81 0 72 q 42 89 26 89 q 65 86 53 89 q 89 81 76 83 q 158 65 124 72 q 226 53 192 57 q 261 48 244 50 q 296 49 278 46 q 303 88 300 60 q 310 149 307 117 q 316 209 314 181 q 318 250 318 238 q 322 346 319 299 q 325 442 324 393 q 324 503 325 461 q 323 601 324 546 q 322 715 322 656 q 319 830 321 775 q 315 927 317 885 q 310 989 313 969 q 272 983 300 988 q 213 974 244 979 q 154 965 182 969 q 117 960 126 961 q 85 962 106 957 q 56 974 64 967 q 39 992 46 982 q 29 1013 32 1001 q 26 1037 26 1025 q 33 1060 26 1049 q 103 1108 57 1101 q 149 1116 114 1110 q 226 1128 185 1122 q 302 1140 267 1135 q 350 1147 338 1146 q 373 1147 361 1149 q 396 1143 385 1146 q 409 1138 400 1142 q 427 1131 418 1135 q 444 1122 436 1126 q 456 1114 451 1117 q 467 1103 461 1108 q 476 1090 472 1097 q 497 1032 493 1064 q 503 969 501 1000 q 503 652 510 810 q 482 336 496 494 q 478 299 481 324 q 472 241 475 274 q 463 173 468 208 q 454 106 458 138 q 445 49 450 74 q 438 13 440 24 q 424 -20 432 -4 q 403 -49 415 -36 q 382 -62 393 -57 q 360 -72 371 -68 z "},"^":{"ha":533,"x_min":24,"x_max":504,"o":"m 122 547 q 80 522 107 525 q 38 542 53 519 q 27 567 31 553 q 29 593 24 582 q 40 620 36 607 q 49 649 44 633 q 80 743 64 696 q 115 836 96 790 q 144 895 131 865 q 179 951 158 925 q 209 983 192 968 q 247 1004 226 997 q 276 1010 261 1008 q 304 1008 290 1011 q 344 991 325 1003 q 375 961 363 979 q 428 864 408 917 q 465 758 449 811 q 474 734 468 751 q 487 698 481 717 q 499 662 493 679 q 504 636 504 644 q 483 585 504 606 q 432 568 461 564 q 406 576 418 571 q 385 592 393 581 q 376 604 382 594 q 369 617 371 614 q 322 732 342 674 q 275 847 303 790 q 248 804 260 826 q 225 758 236 782 q 206 715 219 746 q 176 651 192 685 q 145 587 160 617 q 122 547 131 557 z "},"_":{"ha":797,"x_min":-3,"x_max":800,"o":"m 776 -187 q 746 -208 763 -199 q 711 -214 729 -217 q 690 -209 700 -211 q 672 -200 681 -207 q 656 -197 668 -197 q 638 -194 643 -196 q 573 -193 618 -193 q 470 -192 528 -193 q 349 -191 413 -192 q 227 -189 285 -190 q 125 -185 169 -187 q 61 -179 81 -183 q 33 -168 51 -178 q 8 -150 15 -158 q 0 -121 -3 -137 q 15 -94 3 -104 q 32 -82 24 -87 q 50 -74 40 -76 q 64 -71 54 -72 q 85 -67 74 -69 q 106 -63 96 -65 q 119 -61 115 -61 q 190 -56 143 -60 q 296 -48 238 -51 q 419 -42 354 -44 q 542 -38 483 -39 q 647 -40 600 -37 q 717 -47 693 -42 q 747 -56 732 -50 q 772 -72 761 -61 q 792 -102 783 -85 q 797 -136 800 -119 q 792 -164 796 -150 q 776 -187 788 -178 z "},"a":{"ha":800,"x_min":4,"x_max":789,"o":"m 739 -75 q 722 -77 731 -76 q 704 -75 713 -78 q 667 -53 685 -68 q 639 -21 650 -37 q 622 14 632 -11 q 600 67 611 39 q 580 120 589 94 q 568 157 571 146 q 526 325 543 242 q 404 308 464 318 q 282 290 344 299 q 217 142 250 215 q 149 -7 183 68 q 128 -31 142 -24 q 99 -38 114 -39 q 70 -28 83 -37 q 51 -3 57 -19 q 49 13 49 4 q 51 29 49 22 q 97 150 75 90 q 142 271 118 210 q 100 266 121 268 q 57 261 79 264 q 28 266 40 258 q 10 285 15 274 q 6 310 4 297 q 22 335 8 324 q 35 342 28 339 q 49 346 42 346 q 75 349 57 346 q 114 356 93 351 q 153 363 135 360 q 179 368 172 367 q 237 531 208 450 q 293 694 265 611 q 308 742 297 706 q 333 818 319 778 q 358 894 346 858 q 374 942 369 931 q 382 965 376 949 q 395 1000 388 982 q 410 1034 403 1018 q 421 1057 417 1050 q 450 1081 432 1072 q 488 1090 468 1090 q 511 1084 500 1090 q 533 1071 522 1078 q 547 1058 540 1065 q 556 1040 553 1050 q 565 995 558 1028 q 578 920 571 963 q 593 831 585 878 q 609 741 601 783 q 622 666 617 699 q 629 621 626 633 q 649 525 639 572 q 671 429 660 478 q 689 428 676 429 q 715 424 701 426 q 741 419 729 422 q 758 411 753 415 q 774 389 771 401 q 772 365 776 376 q 758 344 768 353 q 732 335 747 335 l 694 335 q 706 296 697 325 q 724 235 714 267 q 744 174 735 203 q 756 136 753 146 q 771 92 763 113 q 786 47 779 71 q 788 28 788 40 q 789 4 789 17 q 788 -20 789 -8 q 783 -37 786 -32 q 765 -61 776 -50 q 739 -75 754 -72 m 467 778 q 400 585 435 681 q 326 394 365 490 q 417 408 372 401 q 508 421 463 414 q 483 599 493 510 q 467 778 474 688 z "},"b":{"ha":836,"x_min":1,"x_max":818,"o":"m 622 24 q 481 -18 554 -7 q 332 -29 407 -29 q 224 -24 278 -28 q 115 -18 169 -21 q 71 -11 93 -17 q 33 10 49 -6 q 10 44 18 22 q 6 85 1 65 q 24 120 10 104 q 58 144 39 136 q 103 151 79 154 q 150 144 126 149 q 157 253 153 199 q 165 361 161 307 q 159 365 165 363 q 150 367 153 367 q 113 378 128 365 q 93 407 99 390 q 93 442 88 424 q 118 472 99 461 q 124 476 119 474 q 131 479 129 478 q 150 494 139 488 q 174 501 161 500 q 174 520 174 506 q 176 551 175 535 q 177 583 176 568 q 178 601 178 597 q 178 722 179 663 q 171 842 176 782 q 166 888 168 865 q 163 932 164 910 q 159 958 157 944 q 169 980 161 971 q 188 992 176 989 q 213 992 200 996 q 236 971 222 988 q 256 946 250 954 q 285 874 275 913 q 301 796 294 835 q 393 888 342 846 q 506 950 444 931 q 565 960 533 960 q 624 951 596 961 q 710 892 676 936 q 748 798 740 851 q 744 696 756 744 q 721 632 738 663 q 681 576 704 601 q 644 541 664 557 q 601 511 624 525 q 670 491 638 504 q 731 454 703 478 q 794 370 769 421 q 818 268 818 319 q 816 233 818 250 q 807 200 814 215 q 758 117 789 151 q 695 62 731 85 q 622 24 660 39 m 317 664 q 322 601 319 632 q 324 538 324 569 q 416 569 371 553 q 506 606 461 585 q 560 634 533 619 q 611 671 588 649 q 651 743 642 701 q 644 825 660 785 q 615 861 636 847 q 568 875 593 875 q 494 853 533 874 q 421 801 456 832 q 358 733 386 769 q 317 664 331 696 m 315 124 q 458 131 386 118 q 509 142 485 135 q 558 157 533 150 q 590 169 571 161 q 629 186 610 176 q 665 207 649 196 q 688 229 682 218 q 706 270 699 249 q 710 314 713 292 q 703 344 708 329 q 689 369 699 358 q 658 397 676 386 q 619 415 639 408 q 536 436 579 431 q 449 440 493 442 q 325 399 390 418 q 320 261 322 329 q 315 124 318 193 z "},"c":{"ha":801,"x_min":24,"x_max":796,"o":"m 435 17 q 324 7 382 1 q 218 40 265 13 q 111 142 153 76 q 46 310 65 219 q 25 492 26 400 q 53 685 24 588 q 140 860 82 782 q 226 941 176 906 q 332 996 275 976 q 415 1013 372 1010 q 500 1008 458 1017 q 555 992 528 1003 q 604 961 582 981 q 660 885 640 932 q 679 793 681 839 q 676 766 679 782 q 669 733 674 750 q 658 702 664 717 q 644 681 651 688 q 606 669 628 665 q 572 692 583 672 q 566 718 565 704 q 564 747 567 732 q 550 788 561 763 q 524 821 539 814 q 476 837 501 832 q 428 838 451 842 q 354 812 389 832 q 292 764 319 792 q 235 676 256 726 q 206 575 214 626 q 201 459 196 517 q 218 344 206 401 q 237 281 225 313 q 268 222 249 249 q 297 195 281 207 q 333 181 314 183 q 404 186 369 174 q 471 218 439 199 q 531 264 503 238 q 582 319 558 290 q 606 347 594 333 q 624 378 617 361 q 631 401 629 389 q 640 424 633 413 q 686 459 656 447 q 742 457 717 471 q 767 440 756 450 q 785 417 779 431 q 792 395 789 406 q 794 374 796 385 q 760 286 788 326 q 706 208 733 246 q 585 91 656 142 q 435 17 515 40 z "},"d":{"ha":789,"x_min":36,"x_max":772,"o":"m 144 1 q 123 -3 133 -1 q 101 1 113 -4 q 81 12 90 6 q 68 29 72 18 q 62 39 65 35 q 56 49 58 43 q 45 69 50 60 q 39 90 40 79 q 38 115 36 103 q 42 140 39 128 q 74 431 63 286 q 72 724 86 576 q 64 797 69 760 q 51 869 58 833 q 50 880 51 872 q 47 897 49 888 q 43 915 44 907 q 42 925 42 922 q 40 942 40 928 q 40 960 40 957 q 62 995 43 983 q 103 999 81 1007 q 123 983 110 996 q 140 964 136 971 q 151 947 144 960 q 165 921 158 935 q 178 894 172 907 q 188 875 185 881 q 210 807 201 842 q 226 738 219 772 q 279 836 250 788 q 349 921 308 885 q 454 971 393 961 q 569 957 515 981 q 622 927 597 946 q 665 886 646 908 q 733 776 708 838 q 763 649 757 714 q 753 428 772 540 q 678 222 735 315 q 552 90 632 144 q 385 17 472 36 q 287 12 338 6 q 192 36 236 18 q 169 17 186 31 q 144 1 153 4 m 235 190 q 278 178 257 186 q 324 172 300 171 q 401 192 364 175 q 474 232 439 210 q 524 276 501 250 q 563 332 547 301 q 592 401 582 364 q 610 474 603 438 q 621 672 631 575 q 603 745 617 708 q 567 810 590 782 q 532 840 551 826 q 490 856 513 853 q 446 851 468 858 q 406 831 424 844 q 352 775 374 808 q 314 707 331 742 q 274 597 289 654 q 250 481 260 539 q 249 452 249 474 q 250 424 250 431 q 246 307 250 365 q 235 190 242 249 z "},"e":{"ha":586,"x_min":29,"x_max":575,"o":"m 301 -1 q 242 -12 274 -11 q 183 -7 211 -14 q 113 31 144 4 q 65 94 82 58 q 35 208 42 147 q 32 326 29 268 q 69 597 40 464 q 118 867 97 731 q 122 892 121 879 q 125 919 124 906 q 128 944 125 932 q 139 967 131 957 q 129 1006 124 985 q 157 1032 135 1026 q 166 1037 163 1035 q 174 1042 169 1039 q 210 1051 192 1049 q 246 1057 228 1054 q 298 1060 272 1060 q 350 1061 324 1061 q 413 1059 382 1060 q 476 1057 444 1058 q 497 1058 488 1057 q 517 1054 507 1058 q 549 1034 535 1047 q 569 1005 563 1021 q 573 972 575 989 q 557 942 571 956 q 537 926 547 933 q 514 915 526 918 q 492 913 503 913 q 471 915 482 914 q 436 919 463 917 q 379 924 410 921 q 322 928 349 926 q 288 931 296 931 q 269 934 285 932 q 250 936 254 936 q 252 867 254 917 q 246 761 250 817 q 237 656 242 706 q 231 586 232 607 q 323 606 276 597 q 417 617 369 615 q 463 617 439 618 q 501 600 486 615 q 517 569 517 589 q 503 536 517 550 q 467 522 486 522 q 442 522 454 519 q 417 522 429 524 q 319 510 368 519 q 222 490 271 501 q 214 353 217 421 q 219 217 211 285 q 228 181 222 199 q 243 149 233 164 q 262 141 249 140 q 286 144 275 142 q 346 163 319 151 q 390 181 364 169 q 442 200 415 192 q 494 211 469 208 q 535 203 519 214 q 553 168 553 190 q 538 131 553 146 q 503 104 522 115 q 465 82 485 93 q 386 35 426 58 q 301 -1 346 13 z "},"f":{"ha":700,"x_min":17,"x_max":701,"o":"m 256 6 q 224 -35 249 -18 q 175 -54 200 -53 q 137 -47 154 -56 q 108 -24 119 -39 q 90 10 96 -10 q 83 50 83 29 q 85 89 83 61 q 88 153 86 117 q 92 229 90 189 q 96 306 94 269 q 99 369 97 342 q 101 408 100 397 q 102 431 101 414 q 103 466 103 447 q 105 501 104 485 q 106 524 106 518 q 65 524 86 522 q 32 542 44 526 q 20 581 17 557 q 43 614 24 604 q 75 622 58 621 q 108 624 92 624 q 108 758 108 692 q 100 892 107 825 q 99 899 100 896 q 99 907 99 903 q 89 908 93 907 q 81 911 85 910 q 55 926 64 914 q 44 951 46 938 q 51 978 43 965 q 75 997 58 992 q 102 1001 83 1000 q 142 1001 121 1001 q 183 999 164 1000 q 210 999 201 999 q 340 1006 276 999 q 468 1019 404 1013 q 509 1024 482 1021 q 566 1030 536 1028 q 622 1031 596 1032 q 661 1025 649 1031 q 683 1012 672 1019 q 697 993 693 1004 q 700 969 701 981 q 692 947 699 957 q 676 933 686 938 q 653 929 665 928 q 622 931 638 932 q 590 928 606 931 q 399 905 494 917 q 208 897 304 893 q 218 872 214 885 q 226 844 222 858 q 244 738 239 792 q 254 632 250 685 q 311 636 268 633 q 402 642 354 639 q 493 647 450 644 q 551 649 536 649 q 583 637 571 649 q 599 610 596 625 q 595 579 601 594 q 571 557 589 564 q 556 551 563 551 q 408 540 481 546 q 260 531 335 535 q 260 504 260 524 q 262 463 261 485 q 263 420 263 440 q 264 394 264 400 q 265 348 264 379 q 266 278 265 317 q 267 199 267 240 q 266 119 267 157 q 263 51 265 81 q 256 6 260 21 z "},"g":{"ha":769,"x_min":18,"x_max":744,"o":"m 597 19 q 482 -39 544 -21 q 353 -51 419 -57 q 232 -9 290 -44 q 133 76 174 26 q 71 192 93 129 q 36 321 49 256 q 28 511 18 414 q 69 700 39 608 q 119 813 89 758 q 189 913 149 867 q 271 981 224 953 q 369 1018 318 1008 q 502 1013 436 1031 q 619 951 568 994 q 669 893 647 928 q 694 821 692 858 l 694 756 q 693 733 694 744 q 685 714 692 722 q 648 696 671 694 q 615 718 625 697 q 608 740 610 728 q 607 764 607 751 q 607 788 607 776 q 603 811 607 800 q 599 822 600 817 q 594 829 597 826 q 571 849 588 839 q 535 869 554 860 q 498 884 517 878 q 467 892 479 890 q 440 894 453 893 q 413 892 426 894 q 368 874 389 886 q 328 846 347 861 q 281 794 301 822 q 244 733 261 765 q 203 622 217 681 q 183 503 189 563 q 186 390 179 451 q 213 272 193 328 q 267 171 233 215 q 350 110 301 126 q 440 100 397 92 q 494 117 468 106 q 542 146 519 128 q 583 193 565 164 q 606 247 599 218 q 618 306 614 276 q 624 368 622 338 q 624 431 626 399 q 603 431 618 431 q 571 431 588 431 q 538 430 554 431 q 517 429 522 429 q 499 427 513 429 q 472 424 486 425 q 444 422 457 422 q 426 421 432 421 q 378 450 399 425 q 371 499 360 472 q 408 539 382 526 q 425 542 417 542 q 443 544 433 543 q 471 546 450 546 q 515 545 492 546 q 558 543 538 544 q 586 542 579 542 q 633 542 610 540 q 679 536 657 543 q 716 509 701 529 q 736 465 731 489 q 744 401 743 433 q 742 336 744 368 q 719 203 739 269 q 661 83 699 138 q 632 49 649 64 q 597 19 615 33 z "},"h":{"ha":799,"x_min":4,"x_max":756,"o":"m 696 -81 q 673 -87 685 -86 q 650 -86 661 -87 q 620 -77 635 -85 q 594 -58 606 -69 q 586 -47 590 -54 q 578 -29 582 -39 q 570 -11 574 -19 q 567 3 567 -3 q 555 210 556 107 q 561 417 554 313 q 403 412 482 414 q 246 410 325 410 q 249 328 247 369 q 258 247 251 288 q 257 213 261 231 q 246 179 253 194 q 244 168 244 176 q 234 145 240 157 q 218 126 228 133 q 163 115 193 107 q 118 150 133 122 q 102 178 111 165 q 86 206 93 190 q 82 226 83 211 q 79 258 81 242 q 78 290 78 275 q 78 311 78 304 q 78 414 76 363 q 62 417 69 415 q 46 421 54 419 q 18 436 31 421 q 15 478 4 457 q 51 500 26 499 q 67 503 54 500 q 82 507 79 506 q 86 572 83 525 q 93 672 89 619 q 102 770 97 724 q 113 835 107 817 q 125 867 118 850 q 144 894 132 883 q 178 903 160 907 q 206 881 197 899 q 212 870 208 875 q 218 858 215 865 q 224 833 221 846 q 228 808 226 821 q 239 660 238 733 q 243 511 240 586 q 406 514 325 513 q 569 517 488 515 q 576 587 572 553 q 583 657 579 621 q 589 708 585 669 q 598 792 593 747 q 607 875 603 836 q 611 926 611 914 q 615 949 613 938 q 625 968 618 960 q 660 992 639 986 q 699 992 681 997 q 731 970 718 986 q 744 932 744 954 q 745 825 744 879 q 744 718 746 771 q 737 529 742 622 q 733 340 732 436 q 741 181 735 260 q 754 21 747 101 q 751 -9 756 6 q 740 -39 747 -24 q 722 -63 733 -53 q 696 -81 710 -74 z "},"i":{"ha":286,"x_min":46,"x_max":243,"o":"m 232 -1 q 193 -56 222 -39 q 133 -71 164 -74 q 76 -47 101 -68 q 47 15 50 -25 q 46 67 46 31 q 47 151 46 104 q 50 251 49 199 q 53 351 51 304 q 56 435 54 399 q 57 489 57 472 q 57 540 57 504 q 57 619 57 575 q 56 713 57 664 q 56 806 56 761 q 59 885 57 850 q 64 935 61 919 q 101 972 71 965 q 154 958 131 979 q 181 913 169 944 q 203 844 193 881 q 218 772 213 807 q 226 715 224 736 q 243 408 243 563 q 240 228 243 318 q 236 49 236 139 q 235 24 235 36 q 232 -1 235 11 z "},"j":{"ha":672,"x_min":10,"x_max":651,"o":"m 418 31 q 338 -2 382 7 q 251 -6 294 -11 q 108 57 174 7 q 17 203 39 113 q 11 242 13 222 q 14 282 10 263 q 39 353 22 318 q 81 417 56 389 q 104 431 90 428 q 131 428 118 433 q 152 411 143 422 q 163 385 161 400 q 162 370 164 381 q 156 347 160 360 q 150 324 153 335 q 147 310 147 314 q 164 233 140 271 q 224 182 188 194 q 259 174 240 176 q 294 178 278 171 q 338 201 318 186 q 375 233 358 215 q 453 381 429 296 q 478 534 474 456 q 472 690 483 613 q 460 757 467 724 q 440 822 453 790 q 433 839 439 826 q 422 865 428 851 q 410 890 415 878 q 404 907 406 903 q 414 963 396 938 q 464 989 432 988 q 492 983 481 989 q 524 954 511 972 q 547 917 536 936 q 626 715 600 822 q 646 501 651 608 q 622 339 643 419 q 560 188 600 258 q 499 99 535 140 q 418 31 463 58 z "},"k":{"ha":706,"x_min":14,"x_max":697,"o":"m 231 10 q 190 -20 218 -17 q 142 -3 161 -24 q 126 13 135 6 q 110 32 117 21 q 101 52 106 42 q 97 74 97 63 q 97 236 94 156 q 99 399 99 317 q 65 415 82 407 q 33 438 47 424 q 16 474 18 453 q 25 513 14 494 q 59 542 38 532 q 100 564 81 553 q 99 631 100 581 q 98 737 99 681 q 96 843 97 793 q 93 910 94 893 q 89 945 92 928 q 93 978 86 963 q 124 1003 101 997 q 163 994 146 1008 q 179 971 169 989 q 192 944 189 953 q 224 798 215 874 q 239 647 232 722 q 518 882 393 749 q 535 902 524 888 q 560 933 547 917 q 585 965 574 950 q 599 986 596 979 q 619 1008 606 1001 q 646 1012 632 1014 q 670 999 660 1010 q 682 972 681 989 q 674 937 683 958 q 649 893 664 915 q 620 851 635 871 q 596 821 606 832 q 434 653 522 729 q 247 514 346 576 q 249 476 249 494 q 251 438 250 457 q 449 347 350 390 q 642 250 547 303 q 655 244 649 247 q 668 238 661 242 q 692 206 686 225 q 692 169 697 188 q 674 138 688 151 q 638 121 660 124 q 590 132 611 117 q 554 158 579 142 q 497 192 529 174 q 427 229 464 210 q 356 267 390 249 q 295 298 322 285 q 256 318 268 311 q 259 208 258 263 q 261 96 260 153 q 260 67 261 82 q 251 40 258 53 q 242 25 250 38 q 231 10 233 13 z "},"l":{"ha":542,"x_min":35,"x_max":544,"o":"m 233 -3 q 201 -17 218 -10 q 168 -24 185 -25 q 137 -20 153 -24 q 108 -7 121 -17 q 68 47 79 13 q 49 133 53 89 q 43 219 46 176 q 42 453 35 338 q 68 685 50 569 q 76 740 69 700 q 91 824 83 779 q 107 907 99 868 q 121 961 115 946 q 134 988 126 975 q 153 1008 142 1000 q 209 1012 181 1025 q 247 967 238 999 q 262 864 263 917 q 257 758 261 811 q 242 554 250 656 q 232 350 233 453 q 236 233 232 292 q 247 115 240 174 q 320 127 285 118 q 392 143 356 136 q 440 156 415 150 q 488 167 464 163 q 522 160 508 169 q 540 135 535 150 q 538 104 544 119 q 513 82 532 89 q 471 69 501 78 q 405 49 440 60 q 338 31 369 39 q 294 19 306 22 q 283 15 292 18 q 264 9 274 13 q 245 2 254 6 q 233 -3 236 -1 z "},"m":{"ha":1257,"x_min":49,"x_max":1213,"o":"m 1183 0 q 1123 -17 1157 -22 q 1071 17 1089 -12 q 1060 43 1067 24 q 1054 71 1054 63 q 1063 360 1056 217 q 1076 649 1069 503 q 1078 678 1076 657 q 1079 722 1079 699 q 1079 767 1079 746 q 1078 796 1079 788 q 1074 815 1076 804 q 1068 837 1072 826 q 1059 856 1064 847 q 1046 867 1054 864 q 1028 865 1039 868 q 1005 858 1017 863 q 983 846 993 853 q 967 835 972 839 q 924 794 943 817 q 886 749 904 772 q 851 694 867 722 q 824 636 835 667 q 758 381 778 511 q 722 119 738 251 q 722 106 722 115 q 719 87 721 97 q 715 68 717 76 q 711 56 713 60 q 676 35 700 35 q 638 14 660 18 q 597 16 617 10 q 562 38 578 22 q 542 78 546 54 q 540 102 540 85 q 541 138 540 119 q 542 174 542 157 q 543 197 543 190 q 542 277 543 238 q 542 357 542 317 q 542 548 542 453 q 540 739 543 643 q 535 801 539 771 q 522 861 532 832 q 517 874 521 864 q 510 886 513 883 q 490 894 501 893 q 469 893 479 896 q 429 872 447 886 q 396 840 411 858 q 369 804 381 824 q 347 765 358 785 q 285 611 310 690 q 246 450 261 532 q 226 319 235 383 q 213 189 217 256 q 213 171 213 185 q 216 141 214 157 q 219 111 218 125 q 219 93 219 97 q 221 88 219 90 q 222 83 222 86 q 210 15 232 44 q 147 -12 188 -15 q 115 1 132 -11 q 89 33 99 13 q 81 72 79 53 q 74 100 75 86 q 69 129 72 114 q 49 369 50 249 q 51 610 49 489 q 52 649 51 621 q 54 715 53 678 q 57 792 56 751 q 60 869 58 832 q 62 934 61 906 q 64 974 63 963 q 65 979 64 975 q 67 986 67 983 q 86 1015 72 1004 q 116 1027 100 1025 q 149 1023 132 1029 q 176 1001 165 1017 q 185 985 182 994 q 188 965 189 975 q 187 769 185 867 q 190 572 189 672 q 245 736 213 656 q 329 888 278 817 q 365 927 344 910 q 408 960 385 944 q 465 982 433 975 q 524 982 496 989 q 575 954 551 975 q 614 908 599 933 q 640 841 632 876 q 656 769 649 806 q 661 733 658 758 q 667 674 664 707 q 672 603 669 640 q 678 533 675 567 q 682 474 681 500 q 685 436 683 447 q 713 559 697 499 q 754 678 729 619 q 872 856 796 776 q 919 899 894 879 q 972 935 944 919 q 1003 947 988 942 q 1033 954 1018 953 q 1072 952 1053 956 q 1107 939 1092 949 q 1160 885 1139 921 q 1183 828 1175 858 q 1194 768 1190 799 q 1200 690 1197 744 q 1205 567 1203 636 q 1208 422 1207 499 q 1210 276 1210 346 q 1212 153 1211 207 q 1213 75 1213 99 q 1206 35 1213 56 q 1183 0 1199 14 z "},"n":{"ha":861,"x_min":42,"x_max":833,"o":"m 236 51 q 217 10 232 26 q 181 -12 201 -7 q 140 -12 161 -18 q 104 15 119 -6 q 83 70 92 32 q 67 151 74 108 q 58 235 61 194 q 53 296 54 275 q 45 426 49 361 q 42 556 42 490 q 47 690 42 624 q 61 824 51 757 q 68 874 64 849 q 79 924 72 900 q 105 961 86 947 q 146 965 124 975 q 151 965 149 964 q 156 964 153 965 q 183 951 171 961 q 201 926 196 940 q 206 908 206 918 q 204 888 206 899 q 189 758 193 822 q 183 626 185 693 q 216 700 199 664 q 257 768 233 736 q 311 837 282 804 q 376 893 340 869 q 424 922 400 908 q 476 942 449 935 q 533 952 504 949 q 590 949 563 956 q 649 925 621 940 q 725 855 694 900 q 778 763 756 810 q 822 607 810 688 q 831 446 833 526 q 813 269 828 357 q 774 97 797 182 q 768 76 772 92 q 761 57 764 61 q 731 21 749 33 q 706 8 719 14 q 678 6 692 3 q 658 10 668 8 q 640 19 647 13 q 613 48 625 31 q 601 85 601 65 q 609 142 600 114 q 624 200 618 171 q 644 314 635 257 q 656 429 654 371 q 656 472 656 450 q 654 514 657 493 q 645 593 651 554 q 628 671 639 632 q 619 690 625 678 q 605 716 613 703 q 590 741 597 729 q 578 757 582 753 q 533 781 558 776 q 482 776 507 786 q 433 748 456 765 q 393 710 411 731 q 296 560 333 643 q 242 390 258 478 q 227 244 228 318 q 229 97 226 171 q 234 74 229 85 q 236 51 239 63 z "},"o":{"ha":956,"x_min":15,"x_max":942,"o":"m 490 0 q 347 9 419 -7 q 213 61 275 25 q 107 149 150 99 q 67 211 83 176 q 42 282 51 246 q 24 472 15 374 q 67 660 32 571 q 76 681 68 665 q 92 714 83 697 q 109 746 101 731 q 121 767 117 761 q 240 893 169 842 q 396 967 310 944 q 525 978 458 982 q 654 956 592 975 q 721 930 688 944 q 782 894 754 915 q 833 853 808 875 q 876 804 857 831 q 897 772 888 789 q 913 736 907 756 q 916 724 914 733 q 920 703 918 714 q 924 683 922 693 q 926 671 926 674 q 931 509 942 592 q 893 349 919 426 q 834 224 869 285 q 749 118 799 164 q 628 38 696 69 q 490 0 561 7 m 207 289 q 244 231 217 257 q 308 188 272 206 q 384 160 344 169 q 457 151 424 151 q 497 155 476 151 q 536 165 517 158 q 627 208 585 178 q 701 276 669 239 q 750 357 732 313 q 779 447 768 401 q 792 544 790 494 q 783 642 794 594 q 774 662 782 650 q 758 685 767 674 q 739 708 749 697 q 722 722 729 718 q 656 759 690 743 q 585 785 621 775 q 523 799 554 793 q 460 800 492 804 q 372 774 415 794 q 296 724 329 754 q 284 713 292 721 q 268 694 276 704 q 252 676 260 685 q 243 664 244 668 q 209 585 224 625 q 188 503 194 544 q 183 434 182 468 q 189 365 185 400 q 197 327 192 346 q 207 289 201 308 z "},"p":{"ha":717,"x_min":33,"x_max":704,"o":"m 147 -32 q 119 -36 133 -37 q 92 -31 104 -35 q 51 3 67 -24 q 33 54 36 29 q 33 77 33 60 q 35 115 33 94 q 38 152 36 135 q 39 176 39 169 q 55 363 47 269 q 69 550 63 456 q 74 606 71 564 q 81 694 78 647 q 86 782 83 740 q 88 839 89 824 q 87 867 86 846 q 86 896 88 889 q 88 920 83 908 q 101 939 92 932 q 123 947 111 946 q 147 942 135 949 q 191 899 175 928 q 215 842 207 871 q 301 933 253 890 q 407 994 349 975 q 454 1003 431 1001 q 501 997 478 1004 q 603 941 557 982 q 674 849 650 900 q 699 760 693 807 q 697 668 704 713 q 638 499 682 581 q 528 360 594 418 q 469 312 500 335 q 404 274 439 289 q 317 244 363 256 q 228 235 272 232 q 224 190 226 221 q 219 126 222 160 q 213 64 217 93 q 203 22 208 35 q 147 -32 186 -14 m 236 382 q 275 384 256 381 q 314 393 294 388 q 392 429 356 406 q 460 482 429 453 q 526 562 497 518 q 571 654 556 606 q 583 701 578 678 q 586 747 588 724 q 569 808 583 779 q 533 860 556 838 q 503 884 519 874 q 468 896 486 894 q 423 886 444 897 q 382 861 401 875 q 306 798 342 833 q 251 718 271 763 q 242 697 249 713 q 236 675 236 682 q 239 528 239 601 q 236 382 239 456 z "},"q":{"ha":824,"x_min":21,"x_max":806,"o":"m 804 15 q 790 -19 806 -6 q 751 -31 774 -33 q 711 -15 736 -29 q 659 18 686 0 q 608 53 632 36 q 574 81 585 71 q 460 15 525 39 q 331 3 394 -8 q 217 47 271 13 q 128 131 164 82 q 50 267 79 192 q 21 421 21 343 q 44 590 21 507 q 103 751 67 674 q 159 847 126 801 q 233 928 192 892 q 303 975 265 956 q 382 1003 340 994 q 410 1006 396 1006 q 438 1003 424 1007 q 482 1013 460 1010 q 526 1014 504 1017 q 608 983 568 1010 q 644 951 628 969 q 675 914 661 933 q 699 872 689 894 q 719 828 710 850 q 770 663 756 750 q 772 493 785 576 q 726 315 760 401 q 638 153 692 228 q 728 85 682 113 q 737 79 729 83 q 752 70 744 75 q 767 61 760 65 q 776 56 774 57 q 795 38 788 49 q 804 15 803 28 m 372 499 q 456 358 408 425 q 557 231 503 292 q 592 283 576 256 q 621 339 607 311 q 650 410 638 375 q 669 485 663 446 q 674 535 674 510 q 671 586 674 560 q 658 674 668 631 q 628 757 647 717 q 605 797 619 775 q 573 838 590 819 q 535 869 556 857 q 496 879 515 881 q 466 875 481 878 q 438 865 451 872 q 401 847 418 857 q 371 819 383 836 q 349 782 357 803 q 335 740 340 761 q 324 698 328 719 q 324 656 321 676 q 340 574 326 614 q 372 499 354 535 m 381 142 q 431 146 406 139 q 481 164 457 153 q 359 295 415 226 q 263 443 303 364 q 213 565 232 500 q 197 467 201 517 q 201 369 193 418 q 231 278 211 322 q 285 199 251 233 q 328 162 304 179 q 381 142 353 144 z "},"r":{"ha":790,"x_min":44,"x_max":772,"o":"m 182 -33 q 154 -45 169 -40 q 124 -47 139 -50 q 95 -38 110 -44 q 71 -21 81 -32 q 58 -3 64 -12 q 50 18 53 7 q 49 88 44 53 q 54 157 53 122 q 60 459 61 308 q 57 761 60 610 q 56 787 57 767 q 55 828 56 807 q 53 869 54 850 q 51 896 51 889 q 51 924 51 910 q 57 951 50 939 q 95 974 69 972 q 136 956 121 976 q 168 891 156 925 q 188 821 181 857 q 201 742 196 781 q 210 663 206 703 q 324 799 256 738 q 476 894 393 860 q 532 912 503 906 q 589 915 561 918 q 682 879 642 911 q 710 853 697 868 q 733 821 722 838 q 764 736 756 782 q 768 646 772 690 q 726 520 760 581 q 643 415 692 460 q 523 334 588 368 q 388 281 458 300 q 540 197 465 240 q 697 122 615 154 q 713 116 706 119 q 728 106 721 113 q 751 60 746 89 q 744 13 757 32 q 726 -11 738 0 q 699 -25 714 -22 q 679 -28 689 -28 q 658 -26 669 -29 q 624 -15 642 -21 q 592 0 607 -8 q 456 79 521 38 q 325 165 390 121 q 276 204 300 183 q 229 244 253 225 q 227 145 229 194 q 222 46 225 96 q 212 0 222 22 q 182 -33 201 -22 m 225 408 q 328 416 276 404 q 426 449 379 428 q 503 486 465 465 q 572 535 540 507 q 633 610 608 567 q 661 700 658 653 q 653 756 663 728 q 624 803 644 785 q 551 821 593 829 q 482 796 515 814 q 419 756 449 778 q 364 710 390 735 q 314 656 338 685 q 260 573 283 617 q 222 482 238 529 q 224 446 224 464 q 225 408 225 428 z "},"s":{"ha":725,"x_min":1,"x_max":711,"o":"m 518 43 q 328 -19 429 -3 q 128 -32 228 -36 q 90 -29 108 -32 q 57 -18 72 -26 q 13 28 24 -1 q 8 87 1 58 q 39 137 15 115 q 100 158 63 158 q 115 158 103 158 q 131 157 128 157 q 253 160 192 153 q 372 186 314 167 q 440 216 407 199 q 496 261 472 233 q 511 282 504 271 q 519 306 518 293 q 517 335 522 321 q 501 363 511 350 q 465 401 486 385 q 419 431 443 417 q 328 480 375 458 q 236 529 281 501 q 168 587 200 553 q 117 661 136 621 q 97 719 103 689 q 93 781 90 750 q 123 881 97 833 q 186 965 149 929 q 224 996 204 982 q 265 1021 243 1010 q 390 1055 324 1049 q 518 1042 457 1061 q 561 1025 540 1035 q 599 1000 582 1015 q 631 964 617 985 q 650 919 644 943 q 655 892 653 906 q 654 864 657 878 q 626 833 649 840 q 583 840 603 825 q 573 850 576 844 q 565 861 569 856 q 535 881 554 876 q 497 890 517 886 q 422 891 461 897 q 347 867 382 885 q 300 830 321 854 q 274 776 279 806 q 281 736 271 753 q 339 669 300 696 q 435 613 385 638 q 533 560 485 589 q 597 514 567 539 q 653 457 628 489 q 697 378 682 422 q 708 289 711 335 q 694 224 707 256 q 663 164 682 192 q 518 43 603 88 z "},"t":{"ha":675,"x_min":-1,"x_max":676,"o":"m 353 -4 q 296 -7 325 -18 q 270 8 282 -3 q 250 31 258 18 q 237 59 242 44 q 233 88 232 74 q 255 303 244 196 q 268 518 265 410 q 270 576 268 533 q 275 669 272 619 q 280 761 278 718 q 285 819 282 804 q 207 819 246 818 q 129 825 168 819 q 92 831 110 828 q 57 842 74 835 q 35 852 46 847 q 17 865 25 857 q 3 888 7 875 q 0 912 -1 900 q 9 933 1 924 q 31 944 17 942 q 74 950 42 947 q 144 956 107 953 q 215 962 182 960 q 258 965 247 964 q 408 985 333 975 q 557 1006 482 994 q 581 1009 568 1008 q 604 1004 593 1010 q 636 991 619 999 q 663 968 653 983 q 673 943 669 957 q 674 917 676 929 q 666 891 671 904 q 650 869 661 878 q 626 853 639 861 q 599 842 614 844 q 561 838 589 840 q 501 832 533 835 q 442 827 469 829 q 404 825 414 825 q 418 691 415 758 q 424 556 421 624 q 420 316 429 435 q 408 75 411 197 q 392 29 408 51 q 353 -4 375 7 z "},"u":{"ha":718,"x_min":28,"x_max":685,"o":"m 404 -3 q 308 -1 357 -11 q 218 33 260 10 q 180 58 199 44 q 146 88 161 71 q 93 176 114 128 q 61 272 72 224 q 44 350 51 311 q 35 428 38 389 q 40 622 28 525 q 71 815 51 719 q 81 869 76 842 q 90 924 85 896 q 104 953 93 940 q 130 974 115 967 q 162 981 144 981 q 194 974 179 982 q 220 952 208 965 q 235 924 232 939 q 235 881 239 903 q 229 836 232 858 q 215 695 222 765 q 210 554 208 625 q 225 381 211 467 q 272 214 239 294 q 279 197 274 208 q 291 172 285 185 q 303 147 297 158 q 314 131 310 135 q 335 115 318 125 q 357 101 351 104 q 382 96 368 94 q 410 102 396 97 q 438 116 425 107 q 461 133 451 125 q 533 244 510 179 q 570 395 560 318 q 583 551 581 472 q 583 735 588 643 q 576 918 579 826 q 582 960 574 942 q 614 987 592 981 q 656 979 636 993 q 673 957 667 971 q 679 928 679 943 q 683 757 685 842 q 678 588 681 672 q 661 397 674 492 q 617 213 649 301 q 570 119 600 164 q 500 43 540 75 q 455 15 479 28 q 404 -3 431 3 z "},"v":{"ha":647,"x_min":3,"x_max":644,"o":"m 361 0 q 344 -2 357 0 q 328 -4 331 -4 q 276 15 301 -6 q 244 60 251 35 q 234 122 238 92 q 225 185 231 153 q 173 442 204 315 q 99 694 142 569 q 56 809 78 753 q 13 924 33 865 q 6 948 8 935 q 6 974 3 961 q 29 1012 10 997 q 72 1022 49 1026 q 98 1010 86 1019 q 118 989 110 1000 q 174 894 150 944 q 221 794 199 844 q 315 544 276 672 q 381 285 353 415 q 443 578 410 432 q 513 871 476 724 q 524 916 518 893 q 543 958 531 939 q 581 983 557 979 q 624 971 604 986 q 640 945 635 963 q 640 915 644 928 q 633 898 639 911 q 622 870 628 885 q 610 842 615 856 q 603 825 604 829 q 558 680 578 753 q 521 533 539 607 q 510 483 518 519 q 491 399 501 446 q 469 299 481 351 q 448 199 458 246 q 429 115 438 151 q 418 65 421 79 q 408 39 415 51 q 392 15 400 26 q 378 3 386 8 q 361 0 369 -1 z "},"w":{"ha":1107,"x_min":36,"x_max":1064,"o":"m 921 -35 q 869 -35 896 -42 q 819 -12 842 -28 q 799 7 808 -4 q 778 29 789 18 q 706 126 738 74 q 647 235 675 179 q 579 394 610 314 q 519 558 549 475 q 460 376 490 467 q 389 196 429 285 q 351 114 371 156 q 304 36 332 72 q 233 -21 275 -4 q 187 -27 210 -29 q 143 -13 164 -25 q 106 17 122 -1 q 79 57 89 35 q 61 115 67 85 q 51 178 56 146 q 42 290 44 235 q 38 404 39 346 q 40 519 36 463 q 51 635 43 576 q 83 790 64 714 q 119 942 101 865 q 126 969 122 956 q 136 993 129 982 q 170 1019 150 1013 q 210 1022 190 1026 q 245 1002 231 1017 q 263 964 260 988 q 263 944 264 954 q 258 925 261 935 q 232 760 243 842 q 215 594 221 678 q 215 474 213 533 q 221 353 218 414 q 227 275 224 314 q 236 197 231 236 q 290 297 267 246 q 336 399 313 347 q 357 449 342 411 q 390 529 372 486 q 422 610 407 572 q 443 660 438 647 q 449 674 444 664 q 458 694 453 683 q 467 715 463 706 q 474 728 471 724 q 482 739 478 733 q 492 749 486 744 q 511 758 500 756 q 533 758 522 761 q 538 758 536 757 q 542 758 539 758 q 588 746 567 761 q 606 728 599 739 q 617 706 613 717 q 684 540 649 622 q 757 376 719 458 q 836 228 793 297 q 872 173 854 200 q 913 122 890 146 q 941 215 933 167 q 953 311 949 263 q 969 640 971 475 q 960 969 968 804 q 974 1011 958 996 q 1010 1028 990 1026 q 1046 1017 1029 1029 q 1064 978 1063 1004 q 1063 960 1064 974 q 1062 933 1063 947 q 1060 907 1061 919 q 1058 890 1058 894 q 1058 817 1058 872 q 1057 697 1057 761 q 1057 578 1057 633 q 1057 504 1057 522 q 1049 341 1054 422 q 1032 178 1043 260 q 1026 142 1031 165 q 1016 94 1022 119 q 1003 47 1010 69 q 988 15 996 25 q 976 2 981 8 q 965 -10 972 -4 q 944 -25 956 -18 q 921 -35 933 -32 z "},"x":{"ha":728,"x_min":8,"x_max":726,"o":"m 653 14 q 599 -22 633 -12 q 538 -12 565 -31 q 481 38 506 7 q 436 101 457 69 q 358 235 396 168 q 283 371 319 301 q 223 274 253 322 q 165 176 193 226 q 124 94 143 136 q 92 8 104 53 q 65 -18 86 -12 q 28 -10 44 -24 q 18 3 21 -4 q 13 18 15 11 q 10 42 8 29 q 15 67 13 56 q 48 161 28 115 q 92 251 68 207 q 157 368 122 311 q 228 482 192 425 q 169 613 196 547 q 118 747 142 679 q 92 828 104 788 q 67 910 81 869 q 58 933 63 921 q 54 956 54 944 q 71 1006 54 985 q 104 1030 85 1024 q 143 1032 124 1036 q 178 1015 163 1028 q 203 981 194 1001 q 218 945 207 971 q 243 887 229 919 q 273 818 257 854 q 303 749 289 782 q 329 691 318 717 q 346 656 340 665 q 376 695 354 668 q 424 757 397 722 q 482 831 451 792 q 540 904 513 869 q 590 965 568 939 q 622 1003 611 992 q 658 1019 636 1017 q 697 1013 681 1021 q 722 976 718 1000 q 714 931 726 951 q 703 915 711 926 q 685 893 694 904 q 666 872 675 882 q 653 858 657 863 q 403 546 521 708 q 428 501 410 532 q 469 429 446 469 q 519 344 493 389 q 568 258 544 299 q 610 187 592 218 q 639 143 629 156 q 656 117 647 131 q 669 89 665 104 q 669 49 674 69 q 653 14 665 29 z "},"y":{"ha":726,"x_min":3,"x_max":722,"o":"m 342 -31 q 318 -44 331 -37 q 292 -51 306 -50 q 256 -45 274 -53 q 228 -24 239 -37 q 214 1 222 -18 q 203 28 206 19 q 199 51 200 39 q 201 75 199 64 q 217 126 204 89 q 244 203 229 163 q 272 281 258 244 q 292 331 286 317 q 264 362 276 346 q 240 396 251 378 q 154 549 193 471 q 72 703 115 626 q 51 741 64 717 q 28 792 39 765 q 10 843 17 818 q 7 883 3 868 q 52 936 18 921 q 119 932 86 951 q 140 912 132 925 q 154 885 149 899 q 181 828 167 857 q 210 772 196 800 q 224 739 214 763 q 249 684 235 715 q 279 618 264 653 q 309 553 294 583 q 334 499 324 522 q 349 465 344 475 q 442 666 394 567 q 549 861 490 765 q 563 883 553 868 q 584 915 572 899 q 606 945 596 931 q 624 964 617 960 q 635 972 629 968 q 647 979 640 976 q 658 983 657 982 q 698 983 678 994 q 718 949 718 972 q 720 937 718 942 q 722 925 722 932 q 721 911 721 918 q 718 897 721 904 q 666 775 694 835 q 611 653 638 715 q 503 387 556 519 q 408 115 451 254 q 395 67 401 92 q 381 18 389 42 q 363 -7 378 10 q 342 -31 349 -24 z "},"z":{"ha":689,"x_min":0,"x_max":683,"o":"m 133 -26 q 105 -34 119 -32 q 76 -33 90 -36 q 18 12 36 -25 q 15 86 0 49 q 29 109 18 93 q 53 143 40 125 q 77 176 65 161 q 93 199 89 192 q 120 242 100 211 q 167 312 140 272 q 223 395 193 351 q 279 478 253 439 q 326 548 306 518 q 356 590 347 578 q 441 718 399 654 q 519 849 483 782 q 376 839 447 846 q 233 815 304 832 q 203 807 224 813 q 160 796 182 801 q 117 788 138 790 q 86 788 96 785 q 51 813 63 794 q 49 854 40 832 q 62 874 53 865 q 82 892 71 883 q 117 912 99 903 q 154 929 135 921 q 344 988 246 969 q 542 1003 443 1006 q 628 983 586 1003 q 670 931 657 968 q 675 864 683 894 q 658 819 668 840 q 636 778 647 797 q 617 747 632 769 q 583 700 601 725 q 550 653 565 675 q 529 622 535 631 q 509 592 524 615 q 477 544 494 569 q 445 497 460 519 q 425 467 431 474 q 317 288 369 378 q 215 104 264 197 q 358 120 286 115 q 503 125 431 125 q 522 125 508 125 q 551 125 536 125 q 578 124 565 125 q 596 121 590 124 q 622 99 613 113 q 632 71 631 86 q 626 41 633 56 q 603 18 619 26 q 566 10 586 10 q 526 11 546 11 q 418 9 472 10 q 310 3 364 8 q 278 -1 301 1 q 228 -7 256 -4 q 178 -13 201 -10 q 147 -18 156 -17 q 140 -22 144 -18 q 133 -26 136 -25 z "},"{":{"ha":519,"x_min":35,"x_max":547,"o":"m 258 -72 q 193 -72 226 -74 q 129 -60 160 -71 q 76 -22 99 -49 q 43 36 53 4 q 35 92 36 64 q 42 149 35 121 q 71 218 50 185 q 115 282 92 251 q 163 339 139 311 q 215 392 188 367 q 165 412 192 404 q 115 435 139 419 q 90 467 99 446 q 89 508 81 489 q 97 531 93 519 q 107 554 100 543 q 133 575 113 561 q 178 603 154 589 q 223 631 201 618 q 251 651 244 644 q 219 698 238 676 q 183 743 200 719 q 127 827 154 783 q 93 919 100 871 q 90 942 92 931 q 90 964 89 953 q 116 1046 94 1008 q 171 1110 138 1083 q 247 1151 204 1136 q 333 1164 289 1165 q 355 1163 338 1163 q 376 1164 372 1164 q 401 1161 386 1164 q 433 1155 417 1158 q 464 1146 450 1151 q 485 1133 478 1140 q 501 1103 497 1119 q 499 1071 504 1086 q 482 1044 494 1056 q 451 1031 469 1033 q 422 1025 443 1029 q 378 1016 401 1021 q 335 1006 356 1011 q 306 996 314 1000 q 286 984 294 992 q 271 968 278 976 q 260 948 264 958 q 253 926 257 938 q 251 899 247 915 q 264 865 256 882 q 283 831 272 847 q 300 804 293 814 q 338 749 319 776 q 368 692 356 722 q 377 635 381 664 q 357 581 374 606 q 299 528 333 549 q 229 488 264 507 q 273 467 253 481 q 308 435 293 454 q 324 402 318 419 q 326 368 331 385 q 322 360 326 364 q 313 311 322 335 q 292 265 304 288 q 261 217 276 240 q 231 168 246 193 q 222 149 226 161 q 214 124 218 138 q 207 99 210 111 q 206 81 204 88 q 224 72 210 75 q 244 69 238 68 q 327 76 286 69 q 408 94 368 83 q 431 103 419 99 q 456 108 443 108 q 481 107 468 107 q 504 100 493 107 q 538 60 528 85 q 533 11 547 35 q 508 -17 522 -4 q 474 -35 493 -31 q 367 -58 421 -46 q 258 -72 313 -69 z "},"}":{"ha":519,"x_min":-22,"x_max":488,"o":"m 372 -65 q 329 -72 351 -72 q 283 -72 307 -72 q 165 -58 224 -71 q 46 -35 106 -46 q 12 -17 32 -32 q -14 13 -8 -3 q -20 35 -18 24 q -18 57 -22 46 q -10 78 -15 68 q 7 94 -4 89 q 76 107 38 114 q 94 101 79 106 q 111 94 108 96 q 147 86 122 92 q 197 76 171 81 q 248 69 224 72 q 283 69 272 67 q 303 74 292 72 q 315 85 314 76 q 310 115 315 93 q 301 143 304 136 q 265 209 286 178 q 224 272 243 240 q 205 313 213 292 q 196 358 197 335 q 194 364 196 361 q 193 369 193 367 q 196 408 189 390 q 217 442 203 426 q 251 469 232 458 q 290 488 271 481 q 228 522 258 504 q 174 565 197 539 q 151 601 160 581 q 142 642 143 621 q 157 706 139 675 q 193 765 175 738 q 233 826 213 796 q 265 890 254 856 q 269 922 269 907 q 260 946 268 929 q 249 968 253 963 q 210 997 232 989 q 150 1014 181 1008 q 89 1026 119 1019 q 63 1032 76 1029 q 39 1043 50 1035 q 15 1093 14 1063 q 43 1140 17 1124 q 53 1145 46 1142 q 70 1151 61 1149 q 87 1156 79 1154 q 99 1158 94 1158 q 161 1164 131 1163 q 224 1161 192 1165 q 347 1111 290 1153 q 388 1069 371 1093 q 417 1017 406 1044 q 428 927 435 976 q 399 839 421 878 q 363 781 382 808 q 324 726 343 754 q 294 689 310 707 q 268 651 279 671 q 294 633 274 646 q 336 606 314 621 q 378 579 358 592 q 404 561 399 567 q 425 527 415 551 q 435 488 435 503 q 424 455 435 471 q 399 431 414 439 q 352 410 376 417 q 304 392 328 403 q 364 330 336 363 q 419 263 392 297 q 429 248 422 258 q 444 225 436 238 q 458 201 451 213 q 467 186 464 190 q 483 124 478 156 q 481 60 488 92 q 470 22 478 40 q 451 -11 463 4 q 440 -24 449 -14 q 429 -37 432 -35 q 403 -55 418 -49 q 372 -65 388 -61 z "},"~":{"ha":360,"x_min":21,"x_max":340,"o":"m 76 822 q 53 805 69 807 q 29 817 38 803 q 25 847 21 832 q 32 869 26 853 q 43 906 38 886 q 53 942 49 925 q 60 964 58 958 q 76 991 64 982 q 103 999 89 1000 q 130 988 118 999 q 143 960 142 978 q 136 931 146 944 q 123 910 132 925 q 104 877 114 894 q 86 844 94 860 q 76 822 78 829 m 193 688 q 173 687 182 683 q 158 697 164 690 q 151 715 153 704 q 157 733 150 725 q 172 745 163 742 q 190 753 182 749 q 226 772 208 763 q 264 788 244 781 q 276 789 269 790 q 289 786 282 788 q 309 766 304 782 q 303 739 314 750 q 282 726 297 733 q 250 710 267 718 q 217 697 233 703 q 193 688 201 690 m 304 531 q 284 531 299 532 q 253 529 269 531 q 223 527 238 528 q 203 529 208 526 q 185 558 183 538 q 206 585 186 578 q 225 588 211 586 q 254 592 239 590 q 283 594 269 593 q 303 594 296 594 q 329 582 317 594 q 339 564 338 574 q 336 546 340 554 q 324 533 332 538 q 304 531 315 528 z "}," ":{"ha":417,"x_min":0,"x_max":0,"o":""},"¢":{"ha":658,"x_min":18,"x_max":631,"o":"m 418 -31 q 410 -59 419 -47 q 388 -74 401 -71 q 361 -73 375 -78 q 339 -53 347 -68 q 322 3 326 -25 q 317 68 317 35 q 317 135 317 101 q 203 155 258 132 q 110 221 149 178 q 53 313 72 260 q 33 486 18 397 q 74 615 44 553 q 149 724 103 676 q 193 763 169 744 q 244 792 217 781 q 357 817 296 817 q 361 850 358 826 q 367 900 364 874 q 374 950 369 926 q 381 982 378 974 q 407 1008 388 1001 q 446 1007 426 1014 q 471 974 469 999 q 453 936 472 950 q 445 870 449 903 q 438 806 442 838 q 497 778 468 794 q 547 739 526 763 q 573 703 561 722 q 590 664 585 685 q 594 636 593 650 q 596 608 596 622 q 595 579 596 593 q 592 550 594 565 q 569 519 586 529 q 535 512 553 510 q 503 526 517 514 q 489 561 489 539 q 488 572 489 565 q 487 588 488 579 q 484 603 486 596 q 481 614 482 611 q 476 619 479 617 q 471 622 474 621 q 448 638 460 631 q 424 647 436 644 q 410 456 415 551 q 404 265 406 361 q 467 305 436 283 q 522 353 497 326 q 535 368 529 360 q 544 386 542 376 q 548 401 547 393 q 553 417 549 410 q 574 435 561 431 q 600 435 588 439 q 622 420 613 431 q 631 394 631 410 q 606 319 631 356 q 565 269 589 292 q 517 226 542 247 q 463 188 490 206 q 403 156 435 169 q 404 81 404 118 q 411 7 404 43 q 415 -12 413 4 q 418 -31 418 -28 m 308 244 q 315 244 311 244 q 318 246 318 243 q 326 444 321 346 q 340 643 332 543 q 284 606 311 632 q 235 547 257 581 q 201 478 214 514 q 188 411 188 442 q 194 362 188 386 q 213 314 201 338 q 251 268 226 286 q 308 244 276 250 z "},"£":{"ha":821,"x_min":28,"x_max":811,"o":"m 244 1 q 194 -12 221 -10 q 142 -7 167 -14 q 99 10 119 -1 q 67 42 79 22 q 42 92 51 65 q 29 146 32 118 q 32 194 28 169 q 47 240 36 219 q 97 292 65 274 q 164 307 128 310 q 213 297 189 306 q 260 275 238 288 q 238 374 250 325 q 211 472 226 424 q 160 461 185 468 q 110 446 135 454 q 90 445 100 443 q 73 453 81 447 q 62 469 65 460 q 60 490 58 479 q 76 519 61 507 q 110 540 90 531 q 150 556 129 550 q 188 567 171 563 q 181 653 181 608 q 192 738 181 697 q 256 871 211 808 q 360 975 300 933 q 468 1010 410 1010 q 548 994 508 1010 q 615 950 588 978 q 635 932 625 940 q 651 913 644 924 q 676 868 667 892 q 686 819 686 844 q 685 799 686 813 q 683 770 685 785 q 678 742 681 756 q 671 724 675 729 q 667 710 668 721 q 664 697 665 700 q 647 672 660 679 q 620 667 633 665 q 596 681 607 669 q 585 710 585 692 q 587 724 585 713 q 589 739 589 736 q 591 776 589 757 q 586 811 593 794 q 557 844 578 831 q 515 863 536 857 q 479 858 497 867 q 446 838 461 849 q 391 779 414 814 q 356 707 368 744 q 346 652 347 681 q 346 596 344 624 q 439 609 393 603 q 532 618 485 615 q 565 617 547 619 q 594 606 582 615 q 617 573 613 592 q 615 538 621 554 q 593 512 608 522 q 556 504 578 501 q 518 503 544 506 q 462 498 492 501 q 405 492 432 494 q 368 488 378 489 q 390 398 379 443 q 404 306 401 353 q 405 246 407 276 q 396 186 403 215 q 488 139 439 158 q 588 121 536 119 q 630 129 608 122 q 667 151 651 136 q 703 214 690 179 q 731 282 715 249 q 754 301 736 296 q 794 292 778 308 q 804 251 811 275 q 781 188 794 219 q 749 126 768 156 q 713 85 733 104 q 668 56 693 67 q 610 42 640 44 q 551 42 581 39 q 454 67 501 49 q 364 110 407 85 q 313 45 344 74 q 244 1 282 17 m 146 103 q 174 100 158 96 q 200 111 189 104 q 235 142 219 124 q 257 182 250 160 q 230 199 243 190 q 203 214 217 207 q 156 226 179 228 q 125 208 136 225 q 114 172 114 192 q 122 133 113 156 q 146 103 131 110 z "},"¤":{"ha":631,"x_min":35,"x_max":596,"o":"m 547 149 q 555 117 558 132 q 540 92 551 101 q 513 81 529 82 q 483 96 497 81 q 461 121 476 101 q 428 162 446 140 q 397 203 411 183 q 376 229 382 222 q 317 214 347 219 q 256 211 286 208 q 218 168 236 190 q 181 124 200 146 q 171 113 176 117 q 160 106 165 110 q 138 98 149 97 q 117 105 126 99 q 101 122 107 111 q 97 144 96 132 q 107 165 99 153 q 126 191 115 178 q 147 215 136 204 q 161 233 157 226 q 106 267 132 246 q 65 317 81 289 q 38 406 40 360 q 51 495 35 451 q 98 577 67 539 q 171 640 129 615 q 157 650 167 643 q 136 665 147 657 q 115 678 125 672 q 101 688 106 685 q 85 703 90 693 q 81 724 79 714 q 88 744 82 735 q 106 760 94 754 q 130 763 117 765 q 154 753 143 760 q 206 718 181 736 q 257 681 232 700 q 292 699 274 694 q 342 703 317 704 q 394 700 368 703 q 415 724 401 708 q 444 756 428 740 q 475 785 460 772 q 500 801 490 799 q 541 794 524 808 q 553 756 558 779 q 542 736 551 747 q 520 713 532 725 q 497 690 508 700 q 481 674 486 679 q 544 621 517 654 q 586 549 572 588 q 594 507 593 529 q 593 464 596 485 q 573 396 589 428 q 533 336 557 364 q 451 265 499 297 q 471 243 457 260 q 500 208 485 226 q 529 172 515 189 q 547 149 543 154 m 196 388 q 224 367 206 374 q 264 359 243 360 q 306 362 285 358 q 344 371 328 365 q 403 401 375 382 q 447 447 431 419 q 461 473 454 458 q 472 502 468 488 q 473 530 475 517 q 460 551 471 543 q 437 563 450 560 q 411 568 424 567 q 385 571 404 569 q 360 568 367 572 q 326 556 344 561 q 289 556 307 551 q 279 547 285 551 q 268 538 274 543 q 224 494 244 518 q 193 440 203 469 q 189 413 189 428 q 196 388 189 399 z "},"¥":{"ha":658,"x_min":31,"x_max":631,"o":"m 381 21 q 373 -6 382 4 q 351 -19 364 -17 q 324 -18 338 -22 q 303 0 311 -14 q 299 15 300 4 q 295 37 297 25 q 292 59 293 49 q 292 75 292 69 q 294 168 292 122 q 303 260 297 214 q 240 255 271 257 q 178 247 210 253 q 175 245 176 246 q 172 242 174 244 q 154 235 165 236 q 135 238 143 235 q 114 255 119 243 q 110 279 108 267 q 119 303 111 292 q 142 321 128 314 q 176 329 151 325 q 227 336 200 333 q 278 342 254 339 q 314 344 303 344 q 319 380 317 363 q 325 415 322 397 q 288 409 314 414 q 232 399 261 404 q 176 388 203 393 q 140 378 150 382 q 117 369 129 372 q 93 369 104 365 q 67 400 71 378 q 81 438 63 422 q 102 449 86 443 q 137 460 118 456 q 172 469 156 465 q 197 475 189 474 q 186 490 193 479 q 172 513 179 500 q 157 536 164 525 q 149 553 150 547 q 110 642 128 597 q 81 735 93 688 q 70 775 78 746 q 55 837 63 804 q 41 899 47 869 q 33 940 35 929 q 47 991 31 971 q 85 1019 63 1011 q 131 1018 107 1026 q 169 983 156 1010 q 174 969 171 979 q 181 949 178 960 q 185 928 183 938 q 188 914 188 918 q 222 788 203 850 q 268 664 240 725 q 278 644 271 657 q 293 616 285 631 q 310 590 301 601 q 324 574 318 578 q 338 565 331 568 q 351 560 344 563 q 397 757 371 660 q 463 949 424 854 q 469 964 464 951 q 478 979 475 976 q 508 1009 489 1003 q 545 1009 528 1015 q 571 985 563 1003 q 569 943 579 967 q 556 900 560 922 q 546 857 551 878 q 501 683 522 769 q 461 510 481 597 q 525 508 493 511 q 589 501 557 506 q 614 487 606 499 q 623 462 622 475 q 615 437 624 449 q 590 422 607 425 q 568 424 585 421 q 546 426 551 426 q 446 428 499 432 q 438 392 442 410 q 432 356 435 374 q 469 358 444 356 q 522 360 494 360 q 572 358 549 360 q 607 351 596 357 q 625 333 619 344 q 629 310 631 322 q 620 289 628 299 q 599 275 613 279 q 586 274 592 274 q 575 275 581 275 q 496 274 535 276 q 417 268 457 271 q 411 229 415 258 q 402 167 407 200 q 393 104 397 133 q 388 65 389 75 q 382 43 385 54 q 381 21 379 32 z "},"­":{"ha":0,"x_min":0,"x_max":0,"o":""},"±":{"ha":704,"x_min":25,"x_max":678,"o":"m 426 294 q 397 259 422 269 q 349 264 371 249 q 335 277 342 268 q 324 297 329 286 q 315 319 318 308 q 313 339 313 331 q 314 397 313 368 q 317 456 315 426 q 278 453 307 456 q 218 448 250 450 q 158 443 186 446 q 119 440 129 440 q 83 438 101 439 q 47 444 64 436 q 31 461 36 450 q 26 483 25 472 q 33 505 26 494 q 51 521 39 515 q 77 531 64 526 q 104 532 90 536 q 212 551 157 543 q 321 565 267 558 q 323 601 321 575 q 327 654 325 626 q 332 707 329 682 q 339 742 335 732 q 364 770 346 761 q 400 768 382 779 q 413 754 408 763 q 425 739 418 746 q 431 717 432 729 q 425 697 431 706 q 429 578 429 636 q 494 584 457 581 q 566 585 531 588 q 630 573 601 583 q 671 538 658 563 q 676 507 678 522 q 665 479 674 492 q 642 460 657 467 q 611 454 628 453 q 579 471 589 457 q 549 470 571 471 q 504 468 528 469 q 459 465 481 467 q 431 464 438 464 q 431 434 431 456 q 433 388 432 413 q 433 342 433 364 q 431 311 432 319 q 428 303 429 307 q 426 294 426 299 m 553 31 q 324 23 438 22 q 93 26 210 24 q 53 47 67 28 q 51 90 39 67 q 75 108 58 104 q 107 114 92 113 q 301 131 204 124 q 494 149 397 139 q 510 149 499 149 q 533 151 521 150 q 555 153 544 153 q 569 154 565 154 q 592 152 581 153 q 615 146 604 151 q 644 115 633 135 q 646 76 654 96 q 607 39 635 50 q 597 36 604 38 q 581 34 589 35 q 565 32 572 33 q 553 31 557 31 z "},"×":{"ha":561,"x_min":28,"x_max":542,"o":"m 533 294 q 528 247 542 269 q 489 225 515 224 q 473 227 485 225 q 457 231 461 229 q 413 256 433 238 q 374 290 393 274 q 322 341 347 315 q 272 393 297 367 q 222 345 247 369 q 172 297 197 321 q 135 265 154 281 q 94 239 117 250 q 67 234 81 232 q 44 245 54 236 q 31 267 35 254 q 35 294 28 281 q 49 317 38 301 q 72 351 60 333 q 97 385 85 369 q 114 407 108 400 q 126 422 117 411 q 147 446 136 433 q 168 469 158 458 q 182 485 178 481 q 126 543 154 514 q 71 601 99 572 q 66 605 69 603 q 63 608 63 607 q 45 624 53 615 q 35 643 38 632 q 48 682 31 667 q 88 689 65 697 q 101 681 92 688 q 122 667 111 675 q 140 653 132 660 q 153 643 149 646 q 251 557 201 601 q 271 574 257 563 q 300 599 285 586 q 330 621 315 611 q 351 633 344 631 q 373 642 363 638 q 394 643 383 646 q 444 619 422 640 q 465 569 467 597 q 460 549 464 558 q 449 532 456 539 q 403 498 428 513 q 356 465 378 483 q 420 409 388 438 q 486 353 453 381 q 513 327 500 342 q 533 294 526 313 z "},"÷":{"ha":699,"x_min":8,"x_max":683,"o":"m 367 613 q 346 587 360 596 q 317 576 332 578 q 285 579 301 574 q 258 599 269 585 q 247 629 247 613 q 252 660 246 646 q 272 685 258 675 q 303 697 285 694 q 335 692 321 699 q 360 674 350 686 q 372 645 369 661 q 367 613 374 629 m 265 346 q 164 325 214 338 q 61 308 114 313 q 36 315 50 307 q 17 333 22 324 q 13 365 8 349 q 32 393 17 382 q 122 438 75 421 q 248 478 185 461 q 376 500 311 494 q 504 508 440 507 q 629 493 568 510 q 654 478 643 489 q 672 454 665 468 q 681 425 679 440 q 679 396 683 410 q 664 372 675 382 q 638 355 653 361 q 608 347 624 349 q 578 351 592 346 q 567 354 575 353 q 549 357 558 356 q 532 359 540 358 q 519 360 524 360 q 392 360 456 363 q 265 346 328 357 m 368 110 q 340 92 356 96 q 311 92 325 88 q 288 108 297 96 q 276 138 278 119 q 283 170 275 156 q 305 192 292 185 q 334 199 318 200 q 363 183 350 197 q 386 152 382 174 q 372 117 390 131 q 370 113 371 115 q 368 110 369 111 z "},"‘":{"ha":172,"x_min":31,"x_max":146,"o":"m 143 799 q 140 772 146 783 q 124 752 135 760 q 99 742 114 744 q 71 746 85 740 q 48 761 58 751 q 33 783 38 771 q 31 814 31 792 q 31 860 31 836 q 33 907 32 885 q 35 939 35 929 q 37 956 35 943 q 40 974 39 969 q 92 1001 57 1006 q 115 988 103 999 q 129 965 126 976 q 137 899 136 933 q 139 832 138 865 q 143 799 139 815 z "},"’":{"ha":172,"x_min":31,"x_max":146,"o":"m 143 799 q 140 772 146 783 q 124 752 135 760 q 99 742 114 744 q 71 746 85 740 q 48 761 58 751 q 33 783 38 771 q 31 814 31 792 q 31 860 31 836 q 33 907 32 885 q 35 939 35 929 q 37 956 35 943 q 40 974 39 969 q 92 1001 57 1006 q 115 988 103 999 q 129 965 126 976 q 137 899 136 933 q 139 832 138 865 q 143 799 139 815 z "},"“":{"ha":331,"x_min":31,"x_max":304,"o":"m 143 790 q 140 763 146 775 q 124 744 135 751 q 99 734 114 736 q 71 738 85 732 q 48 753 58 743 q 33 775 38 763 q 31 807 31 785 q 31 853 31 829 q 33 900 32 878 q 35 932 35 922 q 37 949 35 936 q 40 965 39 961 q 62 989 47 981 q 92 994 76 997 q 115 981 103 992 q 129 958 126 969 q 137 892 136 925 q 139 824 138 858 q 143 790 139 807 m 301 788 q 299 760 304 772 q 283 741 293 749 q 258 731 272 733 q 229 735 243 729 q 192 772 201 744 q 189 803 189 781 q 190 849 189 825 q 192 896 190 874 q 193 928 193 918 q 194 945 193 932 q 199 961 196 958 q 250 990 214 994 q 272 976 261 988 q 286 954 283 965 q 294 888 293 922 q 297 821 296 854 q 301 788 297 801 z "},"”":{"ha":331,"x_min":31,"x_max":304,"o":"m 143 790 q 140 763 146 775 q 124 744 135 751 q 99 734 114 736 q 71 738 85 732 q 48 753 58 743 q 33 775 38 763 q 31 807 31 785 q 31 853 31 829 q 33 900 32 878 q 35 932 35 922 q 37 949 35 936 q 40 965 39 961 q 62 989 47 981 q 92 994 76 997 q 115 981 103 992 q 129 958 126 969 q 137 892 136 925 q 139 824 138 858 q 143 790 139 807 m 301 788 q 299 760 304 772 q 283 741 293 749 q 258 731 272 733 q 229 735 243 729 q 192 772 201 744 q 189 803 189 781 q 190 849 189 825 q 192 896 190 874 q 193 928 193 918 q 194 945 193 932 q 199 961 196 958 q 250 990 214 994 q 272 976 261 988 q 286 954 283 965 q 294 888 293 922 q 297 821 296 854 q 301 788 297 801 z "},"€":{"ha":788,"x_min":17,"x_max":760,"o":"m 579 21 q 503 -10 544 -1 q 421 -15 461 -18 q 300 24 356 -8 q 227 82 260 47 q 172 157 194 117 q 126 267 144 210 q 104 383 108 325 q 78 378 97 382 q 53 374 60 374 q 29 385 38 375 q 19 406 21 394 q 22 431 17 418 q 40 450 28 443 q 53 454 44 451 q 72 460 61 457 q 90 465 82 463 q 103 467 99 467 q 111 540 104 501 q 108 540 111 544 q 101 532 104 535 q 69 518 86 517 q 42 531 53 519 q 28 558 31 542 q 42 590 26 575 q 84 617 60 608 q 132 631 108 626 q 225 835 164 740 q 271 899 246 868 q 325 957 296 931 q 393 1002 356 983 q 471 1022 431 1021 q 532 1014 501 1022 q 588 988 563 1006 q 638 940 615 968 q 672 881 661 913 q 688 821 682 851 q 692 758 694 790 q 690 728 692 743 q 682 699 689 713 q 665 679 676 688 q 642 669 654 671 q 613 678 625 669 q 594 697 600 686 q 589 722 588 708 q 603 746 590 735 q 595 786 600 765 q 576 822 590 807 q 562 836 569 829 q 546 850 554 843 q 524 863 536 857 q 500 868 513 868 q 476 862 488 868 q 456 849 465 856 q 435 832 444 840 q 418 813 426 824 q 358 730 385 774 q 311 639 331 686 q 353 640 324 639 q 417 642 383 642 q 481 641 451 642 q 524 638 511 640 q 550 618 542 632 q 557 590 558 604 q 544 566 556 576 q 514 557 533 556 q 508 558 513 557 q 503 558 504 558 q 460 558 492 558 q 394 558 429 558 q 326 558 358 558 q 285 557 294 557 q 279 526 282 542 q 274 496 276 511 q 379 511 326 504 q 485 511 432 518 q 515 504 500 508 q 542 489 531 500 q 553 464 553 478 q 547 439 554 450 q 527 422 540 428 q 499 419 514 415 q 494 422 497 421 q 490 424 492 422 q 446 428 476 429 q 381 424 415 428 q 316 417 347 421 q 269 411 285 413 q 294 286 272 349 q 360 179 315 224 q 401 151 378 161 q 447 138 424 140 q 491 143 469 136 q 529 169 513 150 q 569 226 553 196 q 596 289 585 257 q 622 352 593 328 q 689 374 650 376 q 726 358 708 372 q 753 324 743 343 q 758 290 760 308 q 749 256 756 271 q 744 247 749 253 q 738 239 739 240 q 700 160 719 199 q 654 89 681 122 q 619 52 638 69 q 579 21 600 35 z "},"™":{"ha":853,"x_min":11,"x_max":814,"o":"m 294 592 q 289 565 296 576 q 272 549 282 554 q 248 544 261 543 q 225 556 235 546 q 215 571 218 563 q 208 589 211 579 q 205 653 206 606 q 203 753 204 700 q 203 853 203 806 q 203 917 203 900 q 176 913 194 915 q 135 906 157 910 q 95 897 114 901 q 69 889 76 893 q 42 887 56 882 q 22 902 29 892 q 13 926 14 913 q 22 953 11 940 q 44 969 31 964 q 72 978 58 974 q 100 983 79 979 q 144 993 121 988 q 190 1003 168 999 q 218 1008 211 1007 q 222 1011 221 1010 q 226 1014 224 1013 q 247 1018 235 1018 q 256 1017 253 1015 q 286 1023 263 1018 q 336 1033 310 1028 q 386 1044 363 1039 q 417 1050 410 1049 q 446 1046 433 1054 q 464 1024 458 1038 q 465 997 469 1011 q 446 974 461 982 q 415 962 438 968 q 367 949 393 956 q 318 938 342 943 q 285 932 294 933 q 286 868 285 917 q 289 765 288 819 q 292 661 290 710 q 293 597 293 613 q 294 594 293 594 q 294 592 294 593 m 810 561 q 794 533 807 542 q 765 524 781 524 q 737 533 750 524 q 721 561 724 542 q 720 582 719 567 q 722 614 721 597 q 724 646 722 631 q 725 668 725 661 q 726 778 726 722 q 718 888 725 833 q 715 906 717 897 q 711 922 714 914 q 690 884 699 904 q 672 844 681 864 q 661 813 669 836 q 642 763 653 789 q 623 714 632 736 q 608 683 614 692 q 585 660 596 667 q 544 657 567 650 q 525 672 533 661 q 511 694 517 683 q 491 742 500 718 q 471 790 482 767 q 468 706 467 749 q 476 622 469 664 q 485 585 490 606 q 471 563 481 571 q 449 555 461 556 q 424 560 436 554 q 406 579 413 567 q 394 620 399 592 q 388 680 390 649 q 386 740 386 711 q 388 785 386 769 q 391 819 389 801 q 397 851 393 836 q 408 878 401 865 q 425 900 414 892 q 474 908 449 918 q 517 875 500 899 q 542 833 531 854 q 564 788 553 811 q 596 875 579 832 q 638 957 613 918 q 662 988 649 974 q 693 1010 675 1003 q 735 1011 714 1017 q 769 988 756 1006 q 789 947 782 968 q 799 901 796 925 q 808 809 806 856 q 811 715 811 763 q 813 638 813 676 q 810 561 814 600 z "},"−":{"ha":671,"x_min":19,"x_max":657,"o":"m 646 400 q 637 340 657 368 q 585 308 617 311 q 559 310 578 308 q 519 313 540 311 q 481 318 499 315 q 456 321 463 321 q 258 329 357 332 q 60 338 160 326 q 32 351 42 339 q 21 377 22 363 q 28 406 19 392 q 54 425 36 419 q 67 428 57 426 q 87 433 76 431 q 106 439 97 436 q 119 442 115 442 q 290 465 204 457 q 461 467 375 472 q 524 459 493 464 q 588 450 556 454 q 623 433 607 447 q 646 400 639 418 z "},"|":{"ha":300,"x_min":36,"x_max":247,"o":"m 182 -351 q 145 -367 165 -364 q 107 -364 125 -369 q 74 -344 89 -358 q 53 -311 60 -331 q 50 -260 42 -286 q 68 -198 60 -229 q 81 -135 76 -167 q 97 166 100 15 q 88 468 94 317 q 67 770 81 619 q 38 1072 53 921 q 36 1093 36 1083 q 39 1113 36 1103 q 61 1143 46 1132 q 94 1156 76 1154 q 128 1151 111 1158 q 157 1126 146 1144 q 164 1107 163 1117 q 167 1088 165 1097 q 200 813 182 949 q 229 539 218 678 q 242 317 236 428 q 247 94 247 207 q 243 -57 247 18 q 233 -207 239 -132 q 231 -230 233 -214 q 224 -263 228 -246 q 217 -297 221 -281 q 210 -318 214 -312 q 198 -336 204 -328 q 182 -351 192 -344 z "},"`":{"ha":357,"x_min":19,"x_max":339,"o":"m 331 696 q 337 665 339 681 q 325 637 335 649 q 301 619 315 625 q 269 617 286 613 q 251 626 264 619 q 233 635 238 632 q 189 679 217 646 q 132 752 161 713 q 78 828 103 792 q 43 882 54 865 q 31 903 36 892 q 22 925 25 914 q 31 958 19 944 q 58 975 42 971 q 89 973 74 979 q 111 947 104 967 l 111 944 q 156 892 135 919 q 199 839 178 865 q 243 787 221 813 q 292 739 265 761 q 313 719 303 729 q 331 696 324 710 z "},"":{"ha":5253,"x_min":3,"x_max":5196,"o":"m 651 -92 q 622 -82 636 -90 q 596 -62 607 -74 q 580 -33 589 -54 q 569 -1 571 -12 q 564 414 547 204 q 406 410 485 413 q 246 407 326 407 q 249 326 247 367 q 258 244 251 285 q 246 175 264 211 q 244 165 244 174 q 234 142 240 153 q 217 124 228 131 q 163 111 193 103 q 118 147 133 119 q 102 174 111 161 q 86 203 93 188 q 81 224 83 208 q 78 256 79 239 q 76 288 76 272 q 76 310 76 303 q 76 413 74 360 q 61 415 68 414 q 44 418 54 417 q 30 423 36 418 q 17 435 24 428 q 14 476 3 456 q 50 499 25 496 q 65 501 53 499 q 81 506 78 504 q 83 544 82 518 q 87 602 85 569 q 92 671 89 635 q 99 739 96 707 q 105 797 101 771 q 113 833 108 822 q 124 867 118 850 q 144 894 131 883 q 178 903 160 908 q 206 881 196 899 q 212 869 208 875 q 217 857 215 864 q 228 808 225 832 q 239 659 238 733 q 242 510 240 585 q 406 512 325 511 q 571 515 488 513 q 576 585 574 551 q 585 656 579 619 q 590 708 586 669 q 599 792 594 747 q 608 875 604 836 q 613 926 613 914 q 618 949 615 938 q 628 969 621 961 q 663 992 642 988 q 702 992 683 997 q 734 971 721 986 q 747 933 747 956 l 747 718 q 740 528 744 622 q 736 338 735 433 q 744 177 738 256 q 757 17 750 99 q 753 -14 758 1 q 743 -44 749 -29 q 724 -67 736 -57 q 699 -85 711 -78 q 676 -92 688 -92 q 651 -92 664 -93 m 990 -12 q 921 27 953 -1 q 872 92 889 56 q 842 204 849 144 q 839 324 836 264 q 876 596 847 461 q 925 867 904 731 q 932 921 932 892 q 935 945 932 933 q 946 968 938 957 q 937 1006 932 986 q 965 1033 942 1026 q 974 1038 971 1036 q 981 1042 978 1040 q 1017 1051 999 1049 q 1053 1057 1035 1054 q 1107 1062 1081 1061 q 1158 1063 1133 1063 q 1223 1060 1190 1061 q 1288 1057 1256 1060 q 1307 1058 1297 1057 q 1326 1056 1317 1060 q 1358 1035 1344 1049 q 1378 1006 1372 1022 q 1383 973 1385 990 q 1368 942 1382 956 q 1347 926 1357 932 q 1324 915 1336 919 q 1302 913 1314 913 q 1279 915 1290 914 q 1244 919 1271 917 q 1188 923 1218 921 q 1131 927 1157 925 q 1096 929 1104 929 q 1089 932 1094 931 q 1077 935 1083 933 q 1065 937 1071 936 q 1058 938 1060 938 q 1060 867 1063 917 q 1054 760 1058 817 q 1045 655 1050 704 q 1038 585 1040 606 q 1132 605 1086 596 q 1225 614 1178 614 q 1272 614 1247 615 q 1311 600 1296 613 q 1325 567 1325 586 q 1313 535 1325 549 q 1296 524 1306 529 q 1276 519 1286 519 q 1251 519 1263 518 q 1225 519 1239 521 q 1127 509 1176 518 q 1029 488 1078 500 q 1022 349 1025 418 q 1028 213 1018 281 q 1035 178 1031 194 q 1051 146 1040 161 q 1070 138 1057 136 q 1094 142 1083 139 q 1125 148 1111 144 q 1154 158 1139 151 q 1198 176 1172 165 q 1251 197 1224 188 q 1304 208 1279 206 q 1344 199 1329 210 q 1363 165 1363 186 q 1347 126 1363 143 q 1313 100 1332 111 q 1275 78 1294 89 q 1194 31 1235 54 q 1108 -4 1153 7 q 1050 -17 1081 -15 q 990 -12 1019 -19 m 1688 -56 q 1653 -50 1669 -58 q 1625 -26 1636 -42 q 1610 -4 1618 -22 q 1601 24 1603 14 q 1600 71 1592 47 q 1615 122 1603 85 q 1641 201 1626 160 q 1669 278 1656 242 q 1688 326 1682 314 q 1660 358 1672 342 q 1638 393 1649 375 q 1552 547 1592 468 q 1468 703 1513 625 q 1447 741 1460 717 q 1423 792 1435 765 q 1405 842 1411 818 q 1403 882 1399 867 q 1448 938 1414 922 q 1515 933 1482 953 q 1538 912 1529 925 q 1553 886 1546 899 q 1578 828 1564 857 q 1607 772 1593 800 q 1634 713 1614 757 q 1677 617 1654 668 q 1719 522 1700 567 q 1746 463 1739 476 q 1841 665 1793 567 q 1947 861 1889 764 q 1961 883 1951 868 q 1983 915 1971 899 q 2005 945 1994 931 q 2022 964 2015 960 q 2033 973 2028 968 q 2046 981 2039 978 q 2052 982 2049 982 q 2058 985 2056 982 q 2097 984 2078 996 q 2117 949 2117 972 q 2119 937 2117 942 q 2122 925 2122 932 q 2120 910 2121 918 q 2117 897 2119 903 q 2065 774 2094 835 q 2010 651 2036 714 q 1903 384 1956 518 q 1807 111 1851 250 q 1793 63 1800 88 q 1778 13 1786 38 q 1762 -12 1776 6 q 1739 -36 1747 -29 q 1716 -49 1729 -43 q 1688 -56 1703 -54 m 2781 -92 q 2749 -82 2764 -90 q 2724 -62 2735 -74 q 2706 -33 2717 -54 q 2694 -1 2696 -12 q 2690 414 2674 207 q 2532 410 2611 413 q 2372 407 2453 407 q 2377 326 2375 367 q 2386 244 2379 285 q 2384 209 2389 226 q 2372 175 2379 192 l 2372 165 q 2360 142 2367 153 q 2344 124 2354 131 q 2290 111 2319 103 q 2243 147 2260 119 q 2228 174 2238 161 q 2213 203 2218 188 q 2208 224 2210 208 q 2206 256 2207 239 q 2204 288 2204 272 q 2204 310 2204 303 l 2204 413 q 2188 415 2196 414 q 2171 418 2181 417 q 2156 423 2164 418 q 2144 435 2149 428 q 2141 476 2129 456 q 2179 499 2153 496 q 2194 501 2182 499 q 2208 506 2206 504 q 2210 544 2208 518 q 2214 602 2211 569 q 2219 671 2217 635 q 2226 739 2222 707 q 2233 797 2229 771 q 2239 833 2236 822 q 2251 867 2244 850 q 2271 894 2258 883 q 2306 903 2286 908 q 2332 881 2325 899 q 2338 869 2335 875 q 2344 857 2342 864 q 2351 833 2347 846 q 2356 808 2354 819 q 2366 659 2364 733 q 2371 510 2368 585 q 2534 512 2453 511 q 2699 515 2615 513 q 2704 585 2701 551 q 2713 656 2707 619 q 2718 708 2714 669 q 2727 792 2722 747 q 2736 875 2732 836 q 2740 926 2740 914 q 2744 949 2742 938 q 2753 969 2747 961 q 2788 992 2767 988 q 2828 992 2808 997 q 2860 971 2847 986 q 2874 933 2874 956 q 2875 825 2874 879 q 2874 718 2876 771 q 2867 528 2871 622 q 2863 338 2863 433 q 2870 177 2864 256 q 2885 17 2876 99 q 2882 -14 2886 1 q 2871 -44 2878 -29 q 2851 -67 2864 -57 q 2825 -85 2839 -78 q 2803 -92 2814 -92 q 2781 -92 2792 -93 m 3143 57 q 3085 97 3113 75 q 3036 146 3057 118 q 2969 278 2989 201 q 2952 469 2943 369 q 2994 658 2961 569 q 3005 680 2997 664 q 3021 713 3013 696 q 3038 746 3029 731 q 3050 767 3046 761 q 3169 893 3099 842 q 3326 968 3239 944 q 3456 980 3389 983 q 3585 957 3524 976 q 3653 930 3619 944 q 3715 894 3686 915 q 3765 853 3740 875 q 3810 804 3790 832 q 3846 736 3833 772 q 3849 724 3847 733 q 3853 703 3851 714 q 3857 683 3856 693 q 3858 671 3858 674 q 3863 508 3875 590 q 3826 346 3851 425 q 3767 222 3803 283 q 3682 115 3731 160 q 3560 35 3628 67 q 3421 -3 3492 3 q 3277 5 3350 -11 q 3143 57 3204 21 m 3388 149 q 3467 163 3431 149 q 3558 205 3515 175 q 3635 274 3601 235 q 3683 354 3665 310 q 3711 446 3701 399 q 3725 543 3724 493 q 3715 639 3726 593 q 3707 660 3714 647 q 3690 684 3700 672 q 3671 706 3681 696 q 3654 721 3661 717 q 3515 785 3589 767 q 3454 799 3485 793 q 3392 800 3424 804 q 3303 774 3346 793 q 3225 724 3260 754 q 3213 713 3221 721 q 3197 694 3206 704 q 3182 676 3189 685 q 3174 663 3175 667 q 3118 501 3133 588 q 3112 431 3111 465 q 3119 363 3113 397 q 3126 324 3121 343 q 3135 286 3131 306 q 3173 227 3144 253 q 3238 184 3201 201 q 3313 158 3274 167 q 3388 149 3353 149 m 4101 57 q 4044 97 4071 75 q 3996 146 4018 118 q 3956 208 3972 174 q 3931 278 3940 242 q 3912 469 3904 369 q 3954 658 3919 569 q 3965 680 3957 664 q 3981 713 3972 696 q 3999 746 3990 731 q 4011 767 4007 761 q 4130 893 4060 842 q 4286 968 4200 944 q 4417 980 4350 983 q 4546 957 4483 976 q 4613 930 4579 944 q 4674 894 4646 915 q 4726 853 4701 875 q 4769 804 4750 832 q 4790 772 4781 789 q 4807 736 4800 754 q 4809 724 4807 733 q 4813 703 4811 714 q 4817 683 4815 693 q 4819 671 4819 674 q 4824 508 4835 590 q 4786 346 4813 425 q 4727 222 4763 283 q 4642 115 4692 160 q 4520 35 4588 67 q 4382 -3 4453 3 q 4237 5 4310 -11 q 4101 57 4164 21 m 4349 149 q 4388 152 4368 149 q 4428 163 4408 156 q 4519 205 4476 175 q 4593 274 4561 235 q 4642 354 4624 310 q 4671 446 4660 399 q 4685 543 4682 493 q 4676 639 4688 593 q 4667 660 4674 647 q 4650 684 4660 672 q 4631 706 4640 696 q 4615 721 4621 717 q 4476 785 4550 767 q 4414 799 4446 793 q 4350 800 4382 804 q 4263 774 4306 793 q 4186 724 4219 754 q 4174 713 4182 721 q 4157 694 4165 704 q 4142 676 4149 685 q 4133 663 4135 667 q 4076 501 4093 583 q 4072 431 4071 465 q 4078 363 4074 397 q 4086 324 4081 343 q 4097 286 4092 306 q 4135 227 4107 253 q 4199 184 4163 201 q 4274 158 4235 167 q 4349 149 4314 149 m 4879 818 q 4873 832 4874 824 q 4874 847 4872 840 q 4881 870 4875 853 q 4892 906 4886 888 q 4903 942 4899 925 q 4910 964 4908 958 q 4926 991 4914 982 q 4953 999 4939 1000 q 4980 989 4968 999 q 4992 961 4992 979 q 4985 929 4994 942 q 4972 909 4981 924 q 4954 878 4964 894 q 4936 845 4944 861 q 4926 822 4928 829 q 4903 804 4919 806 q 4879 818 4886 803 m 5007 732 q 5022 745 5013 742 q 5040 751 5032 749 q 5076 771 5058 763 q 5113 788 5093 779 q 5126 789 5119 790 q 5139 785 5132 788 q 5160 765 5154 781 q 5153 738 5165 749 q 5131 724 5146 732 q 5099 710 5117 717 q 5066 696 5082 703 q 5042 686 5050 689 q 5023 685 5032 682 q 5008 696 5014 689 q 5001 713 5003 703 q 5007 732 5000 724 m 5053 528 q 5035 557 5033 536 q 5056 582 5036 578 q 5075 585 5061 583 q 5104 589 5089 588 q 5133 591 5119 590 q 5153 592 5146 592 q 5179 581 5171 592 q 5187 544 5196 564 q 5154 529 5178 525 q 5134 530 5149 531 q 5103 528 5119 529 q 5072 526 5086 526 q 5053 528 5057 525 z "}}}
